<svg width="4563" height="2410" viewBox="0 0 4563 2410" fill="none" xmlns="http://www.w3.org/2000/svg">
<g id="floor 2.OG">
<g id="Group 39832">
<g id="Group 39810">
<g id="Frame 208">
<rect width="4562.56" height="2409.87" fill="#F9F2EB"/>
</g>
</g>
</g>
<g id="Group 39830">
<g id="Group 39829">
<g id="Group 39828">
<g id="Ebene_1">
<path id="Vector" d="M1920.21 839.392L1920.21 815.806C1920.21 810.15 1915.69 805.577 1910.04 805.577L1594.28 805.457C1588.62 805.457 1584.04 810.03 1584.04 815.686L1584.04 844.928C1583.98 850.583 1579.35 855.156 1573.75 855.156L1095.4 855.156" stroke="#292925" stroke-width="28.5755" stroke-linecap="round" stroke-linejoin="round"/>
<path id="Vector_2" d="M2362.24 1294.87L1929.9 1294.87C1924.24 1294.87 1919.66 1290.29 1919.66 1284.64L1919.66 819.167" stroke="#292925" stroke-width="28.5755" stroke-linecap="round" stroke-linejoin="round"/>
<path id="Vector_3" d="M1633.51 997.876L1584.23 997.876L1584.23 938.232L1584.23 1264.36" stroke="#292925" stroke-width="28.5755" stroke-linecap="round" stroke-linejoin="round"/>
<path id="Vector_4" d="M1747.01 1185.72L1746.83 997.875L1723.78 997.875" stroke="#292925" stroke-width="28.5755" stroke-linecap="round" stroke-linejoin="round"/>
<path id="Vector_5" d="M2104.48 1431.39L2104.48 1763.1" stroke="#292925" stroke-width="28.5755" stroke-linecap="round" stroke-linejoin="round"/>
<path id="Vector_6" d="M1742.8 1266.35L1742.8 1296.43L1568.82 1296.43" stroke="#292925" stroke-width="28.5755" stroke-linecap="round" stroke-linejoin="round"/>
<path id="Vector_7" d="M330.509 855.036L469.583 855.156" stroke="#292925" stroke-width="28.5755" stroke-linecap="round" stroke-linejoin="round"/>
<path id="Vector_8" d="M569.18 855.036L744.302 855.156" stroke="#292925" stroke-width="28.5755" stroke-linecap="round" stroke-linejoin="round"/>
<path id="Vector_9" d="M466.815 949.5L466.815 1226.09C466.815 1231.75 462.241 1236.32 456.585 1236.32L337.851 1236.32C332.194 1236.32 327.62 1231.75 327.62 1226.09L327.62 735.3C327.62 729.644 332.194 725.071 337.79 725.071L704.644 723.086C710.301 723.086 714.934 727.659 714.934 733.314L714.814 844.867C714.814 850.523 719.388 855.096 725.045 855.096L1093.04 855.096" stroke="#292925" stroke-width="28.5755" stroke-linecap="round" stroke-linejoin="round"/>
<path id="Vector_10" d="M705.366 949.5L705.246 1199.02" stroke="#292925" stroke-width="28.5755" stroke-linecap="round" stroke-linejoin="round"/>
<path id="Vector_11" d="M580.374 1236.26L447.683 1236.26L694.233 1236.26C699.83 1236.26 704.403 1231.75 704.463 1226.1L704.704 1197.15C704.704 1191.56 709.338 1186.99 714.935 1186.99L1573.39 1188.01C1579.05 1188.01 1583.62 1192.58 1583.62 1198.24L1583.62 1284.52C1583.62 1290.17 1579.05 1294.75 1573.39 1294.75L1571.53 1294.75C1565.87 1294.75 1561.3 1299.32 1561.3 1304.98L1560.94 1752.75C1560.94 1758.41 1565.51 1762.98 1571.17 1762.98L2214 1762.98" stroke="#292925" stroke-width="28.5755" stroke-linecap="round" stroke-linejoin="round"/>
<path id="Vector_12" d="M2647.11 839.452L2647.11 815.866C2647.11 810.21 2651.63 805.637 2657.28 805.637L2973.04 805.517C2978.7 805.517 2983.27 810.09 2983.27 815.745L2983.27 844.987C2983.33 850.643 2987.97 855.216 2993.57 855.216L3476.69 855.216" stroke="#292925" stroke-width="28.5755" stroke-linecap="round" stroke-linejoin="round"/>
<path id="Vector_13" d="M2348.2 1294.93L2637.36 1294.93C2643.02 1294.93 2647.59 1290.36 2647.59 1284.7L2647.59 816.786" stroke="#292925" stroke-width="28.5755" stroke-linecap="round" stroke-linejoin="round"/>
<path id="Vector_14" d="M2933.75 997.935L2983.09 997.935L2983.09 947.756M3076.63 947.756L2983.09 947.756L2983.09 1002.53L2983.09 1264.42" stroke="#292925" stroke-width="28.5755" stroke-linecap="round" stroke-linejoin="round"/>
<path id="Vector_15" d="M2820.31 1185.84L2820.49 997.936L2843.48 997.936" stroke="#292925" stroke-width="28.5755" stroke-linecap="round" stroke-linejoin="round"/>
<path id="Vector_16" d="M2693.24 1440.68L2462.84 1440.68L2462.84 1763.16" stroke="#292925" stroke-width="28.5755" stroke-linecap="round" stroke-linejoin="round"/>
<path id="Vector_17" d="M2824.52 1266.47L2824.52 1296.49L2998.44 1296.49" stroke="#292925" stroke-width="28.5755" stroke-linecap="round" stroke-linejoin="round"/>
<path id="Vector_18" d="M3998.08 855.155L3823.02 855.275" stroke="#292925" stroke-width="28.5755" stroke-linecap="round" stroke-linejoin="round"/>
<path id="Vector_19" d="M4100.44 949.56L4100.44 1226.15C4100.44 1231.81 4105.02 1236.38 4110.68 1236.38L3983.9 1236.38L4229.41 1236.38C4235.07 1236.38 4239.64 1231.81 4239.64 1226.15L4239.64 735.42C4239.64 729.764 4235.07 725.191 4229.47 725.191L3862.62 723.206C3856.96 723.206 3852.33 727.779 3852.33 733.435L3852.45 844.987C3852.45 850.643 3847.87 855.216 3842.22 855.216L3474.22 855.216" stroke="#292925" stroke-width="28.5755" stroke-linecap="round" stroke-linejoin="round"/>
<path id="Vector_20" d="M3861.89 949.56L3862.07 1199.14" stroke="#292925" stroke-width="28.5755" stroke-linecap="round" stroke-linejoin="round"/>
<path id="Vector_21" d="M2353.26 1763.1L2174.12 1763.1L2996.09 1763.1C3001.75 1763.1 3006.32 1758.53 3006.32 1752.87L3005.96 1571.66L3005.96 1305.1C3005.96 1299.44 3001.39 1294.87 2995.73 1294.87L2993.87 1294.87C2988.21 1294.87 2983.64 1290.3 2983.64 1284.64L2983.64 1198.36C2983.64 1192.7 2988.21 1188.13 2993.87 1188.13L3852.33 1187.11C3857.92 1187.11 3862.56 1191.68 3862.56 1197.27L3862.8 1226.22C3862.86 1231.87 3867.43 1236.38 3873.03 1236.38L3986.89 1236.38" stroke="#292925" stroke-width="28.5755" stroke-linecap="round" stroke-linejoin="round"/>
<path id="Vector_22" d="M1824.07 1431.16L1743.11 1431.16L1743.11 1302.57M3331.43 1178.74L3331.43 947.756L3410.01 947.756M3505.27 947.756L3857 947.756M3162.24 1178.74L3162.24 947.756M2105.06 1431.16L1909.8 1431.16" stroke="#292925" stroke-width="28.5755" stroke-linecap="round" stroke-linejoin="round"/>
<path id="Vector_23" d="M2288.42 1750.25L2288.42 1433.54" stroke="#292925" stroke-width="28.5755" stroke-linecap="round" stroke-linejoin="round"/>
<path id="Vector_24" d="M2648 1293.04L2693.24 1293.04" stroke="#292925" stroke-width="28.5755" stroke-linecap="round" stroke-linejoin="round"/>
<path id="Vector_25" d="M2819.45 1762.16L2819.45 1433.54" stroke="#292925" stroke-width="28.5755" stroke-linecap="round" stroke-linejoin="round"/>
<path id="Vector_26" d="M705 976.994L1181.12 976.994" stroke="#292925" stroke-width="28.5755" stroke-linecap="round" stroke-linejoin="round"/>
<path id="Vector_27" d="M1290 977.002L1290.71 1176.36" stroke="#292925" stroke-width="28.5755" stroke-linecap="round" stroke-linejoin="round"/>
</g>
<path id="Vector_28" d="M1754 1165L1754 1296" stroke="#292925" stroke-width="3.57194" stroke-linecap="round" stroke-linejoin="round"/>
<path id="Vector_29" d="M1735 1165L1735 1296" stroke="#292925" stroke-width="3.57194" stroke-linecap="round" stroke-linejoin="round"/>
</g>
<path id="Vector_30" d="M3871 855.002L3871 986.002" stroke="#292925" stroke-width="3.57194" stroke-linecap="round" stroke-linejoin="round"/>
<path id="Vector_31" d="M3852 855.002L3852 986.002" stroke="#292925" stroke-width="3.57194" stroke-linecap="round" stroke-linejoin="round"/>
</g>
<path id="Vector_32" d="M1821 1423L1904 1423" stroke="#292925" stroke-width="3.57194" stroke-linecap="round" stroke-linejoin="round"/>
<path id="Vector_33" d="M1821 1442H1904" stroke="#292925" stroke-width="3.57194" stroke-linecap="round" stroke-linejoin="round"/>
<path id="Vector_34" d="M2683 1432L2814 1432" stroke="#292925" stroke-width="3.57194" stroke-linecap="round" stroke-linejoin="round"/>
<path id="Vector_35" d="M2683 1451H2814" stroke="#292925" stroke-width="3.57194" stroke-linecap="round" stroke-linejoin="round"/>
<path id="Vector_36" d="M2833 1303L2833 1434" stroke="#292925" stroke-width="3.57194" stroke-linecap="round" stroke-linejoin="round"/>
<path id="Vector_37" d="M2814 1303L2814 1434" stroke="#292925" stroke-width="3.57194" stroke-linecap="round" stroke-linejoin="round"/>
<path id="Vector_38" d="M2832 1186L2832 1266" stroke="#292925" stroke-width="3.57194" stroke-linecap="round" stroke-linejoin="round"/>
<path id="Vector_39" d="M2813 1186L2813 1266" stroke="#292925" stroke-width="3.57194" stroke-linecap="round" stroke-linejoin="round"/>
</g>
<path id="Vector_40" d="M1634 987.002L1717 987.002" stroke="#292925" stroke-width="3.57194" stroke-linecap="round" stroke-linejoin="round"/>
<path id="Vector_41" d="M1634 1010H1717" stroke="#292925" stroke-width="3.57194" stroke-linecap="round" stroke-linejoin="round"/>
</g>
</svg>
