<svg width="4563" height="2410" viewBox="0 0 4563 2410" fill="none" xmlns="http://www.w3.org/2000/svg">
<g id="GF">
<g id="Group 39824">
<g id="floorplan">
<g id="Group 39810">
<g id="Frame 208">
<rect width="4562.56" height="2409.87" fill="#F9F2EB"/>
</g>
<g id="Ebene_1">
<path id="Vector" d="M1915.45 896.541V872.955C1915.45 867.299 1910.93 862.726 1905.28 862.726L1589.51 862.606C1583.86 862.606 1579.28 867.179 1579.28 872.835V902.077C1579.22 907.732 1574.59 912.305 1568.99 912.305H1208.7" stroke="#292925" stroke-width="28.5755" stroke-linecap="round" stroke-linejoin="round"/>
<path id="Vector_2" d="M2037.61 999.128V1245.64H2214.3V1352.02H1925.13C1919.48 1352.02 1914.9 1347.44 1914.9 1341.79L1915.33 995.338H1943.91" stroke="#292925" stroke-width="28.5755" stroke-linecap="round" stroke-linejoin="round"/>
<path id="Vector_3" d="M2279.53 589.561H2037.61V902.859" stroke="#292925" stroke-width="28.5755" stroke-linecap="round" stroke-linejoin="round"/>
<path id="Vector_4" d="M1923.45 995.338H2037.61" stroke="#292925" stroke-width="28.5755" stroke-linecap="round" stroke-linejoin="round"/>
<path id="Vector_5" d="M1628.75 1055.03H1579.46V1321.51" stroke="#292925" stroke-width="28.5755" stroke-linecap="round" stroke-linejoin="round"/>
<path id="Vector_6" d="M1742.25 1242.87L1742.07 1055.03H1719.02" stroke="#292925" stroke-width="28.5755" stroke-linecap="round" stroke-linejoin="round"/>
<path id="Vector_7" d="M2099.71 1488.54V1820.25" stroke="#292925" stroke-width="28.5755" stroke-linecap="round" stroke-linejoin="round"/>
<path id="Vector_8" d="M1738.04 1323.5V1353.58H1564.06" stroke="#292925" stroke-width="28.5755" stroke-linecap="round" stroke-linejoin="round"/>
<path id="Vector_9" d="M325.748 912.185L464.822 912.305" stroke="#292925" stroke-width="28.5755" stroke-linecap="round" stroke-linejoin="round"/>
<path id="Vector_10" d="M564.419 912.185L739.541 912.305" stroke="#292925" stroke-width="28.5755" stroke-linecap="round" stroke-linejoin="round"/>
<path id="Vector_11" d="M462.054 1006.65V1283.24C462.054 1288.9 457.481 1293.47 451.824 1293.47H333.09C327.433 1293.47 322.859 1288.9 322.859 1283.24V792.45C322.859 786.794 327.433 782.221 333.03 782.221L699.883 780.235C705.54 780.235 710.174 784.808 710.174 790.464L710.053 902.017C710.053 907.672 714.627 912.245 720.284 912.245H1088.28" stroke="#292925" stroke-width="28.5755" stroke-linecap="round" stroke-linejoin="round"/>
<path id="Vector_12" d="M700.605 1006.65L700.485 1256.17" stroke="#292925" stroke-width="28.5755" stroke-linecap="round" stroke-linejoin="round"/>
<path id="Vector_13" d="M565.382 1283.18C565.382 1288.84 569.956 1293.41 575.613 1293.41H689.472C695.069 1293.41 699.642 1288.9 699.703 1283.24L699.943 1254.3C699.943 1248.71 704.577 1244.13 710.174 1244.13L1568.63 1245.16C1574.29 1245.16 1578.86 1249.73 1578.86 1255.39V1341.67C1578.86 1347.32 1574.29 1351.9 1568.63 1351.9H1566.77C1561.11 1351.9 1556.54 1356.47 1556.54 1362.13L1556.18 1809.9C1556.18 1815.56 1560.75 1820.13 1566.41 1820.13H2209.24" stroke="#292925" stroke-width="28.5755" stroke-linecap="round" stroke-linejoin="round"/>
<g id="Group">
<path id="Vector_14" d="M1905.04 879.814L2042.73 879.935" stroke="#292925" stroke-width="3.57194" stroke-linecap="round" stroke-linejoin="round"/>
<path id="Vector_15" d="M1919.27 902.438L2042.95 902.558" stroke="#292925" stroke-width="3.57194" stroke-linecap="round" stroke-linejoin="round"/>
</g>
<g id="Group_2">
<path id="Vector_16" d="M2176.8 1808.88L2329.96 1809" stroke="#292925" stroke-width="3.57194" stroke-linecap="round" stroke-linejoin="round"/>
<path id="Vector_17" d="M2192.63 1831.5L2330.2 1831.62" stroke="#292925" stroke-width="3.57194" stroke-linecap="round" stroke-linejoin="round"/>
</g>
<g id="Group_3">
<path id="Vector_18" d="M1057.23 900.873L1210.33 900.994" stroke="#292925" stroke-width="3.57194" stroke-linecap="round" stroke-linejoin="round"/>
<path id="Vector_19" d="M1073.06 923.497L1210.63 923.617" stroke="#292925" stroke-width="3.57194" stroke-linecap="round" stroke-linejoin="round"/>
</g>
<g id="Group_4">
<path id="Vector_20" d="M445.205 1282.1L598.361 1282.22" stroke="#292925" stroke-width="3.57194" stroke-linecap="round" stroke-linejoin="round"/>
<path id="Vector_21" d="M461.032 1304.72L598.602 1304.84" stroke="#292925" stroke-width="3.57194" stroke-linecap="round" stroke-linejoin="round"/>
</g>
<path id="Vector_22" d="M2642.35 896.601V873.015C2642.35 867.36 2646.87 862.787 2652.52 862.787L2968.28 862.666C2973.94 862.666 2978.51 867.239 2978.51 872.895V902.137C2978.57 907.793 2983.21 912.366 2988.81 912.366H3349.1" stroke="#292925" stroke-width="28.5755" stroke-linecap="round" stroke-linejoin="round"/>
<path id="Vector_23" d="M2520.13 998.045V1245.7H2343.44V1352.08H2632.6C2638.26 1352.08 2642.83 1347.5 2642.83 1341.85L2642.41 995.398H2613.83" stroke="#292925" stroke-width="28.5755" stroke-linecap="round" stroke-linejoin="round"/>
<path id="Vector_24" d="M2278.27 589.682H2520.13V901.776" stroke="#292925" stroke-width="28.5755" stroke-linecap="round" stroke-linejoin="round"/>
<path id="Vector_25" d="M2634.35 995.398H2520.13" stroke="#292925" stroke-width="28.5755" stroke-linecap="round" stroke-linejoin="round"/>
<path id="Vector_26" d="M2928.99 1055.09H2978.33V1321.57" stroke="#292925" stroke-width="28.5755" stroke-linecap="round" stroke-linejoin="round"/>
<path id="Vector_27" d="M2815.55 1242.99L2815.73 1055.09H2838.72" stroke="#292925" stroke-width="28.5755" stroke-linecap="round" stroke-linejoin="round"/>
<path id="Vector_28" d="M2458.08 1488.66V1654.48V1820.31" stroke="#292925" stroke-width="28.5755" stroke-linecap="round" stroke-linejoin="round"/>
<path id="Vector_29" d="M2819.76 1323.62V1353.64H2993.68" stroke="#292925" stroke-width="28.5755" stroke-linecap="round" stroke-linejoin="round"/>
<path id="Vector_30" d="M4089 912H3818" stroke="#292925" stroke-width="28.5755" stroke-linecap="round" stroke-linejoin="round"/>
<path id="Vector_31" d="M4095.68 1006.71V1283.3C4095.68 1288.96 4100.26 1293.53 4105.91 1293.53H4224.65C4230.3 1293.53 4234.88 1288.96 4234.88 1283.3V792.57C4234.88 786.914 4230.3 782.341 4224.71 782.341L3857.85 780.356C3852.2 780.356 3847.56 784.929 3847.56 790.584L3847.68 902.137C3847.68 907.793 3843.11 912.366 3837.45 912.366H3469.46" stroke="#292925" stroke-width="28.5755" stroke-linecap="round" stroke-linejoin="round"/>
<path id="Vector_32" d="M3857.13 1006.71L3857.31 1256.29" stroke="#292925" stroke-width="28.5755" stroke-linecap="round" stroke-linejoin="round"/>
<path id="Vector_33" d="M3992.36 1283.3C3992.36 1288.96 3987.78 1293.53 3982.13 1293.53H3868.27C3862.67 1293.53 3858.1 1289.02 3858.04 1283.36L3857.79 1254.42C3857.79 1248.83 3853.16 1244.25 3847.56 1244.25L2989.11 1245.28C2983.45 1245.28 2978.88 1249.85 2978.88 1255.51V1341.79C2978.88 1347.44 2983.45 1352.02 2989.11 1352.02H2990.97C2996.63 1352.02 3001.2 1356.59 3001.2 1362.25L3001.56 1810.02C3001.56 1815.68 2996.99 1820.25 2991.33 1820.25H2348.5" stroke="#292925" stroke-width="28.5755" stroke-linecap="round" stroke-linejoin="round"/>
<g id="Group_5">
<path id="Vector_34" d="M2644.37 879.935L2519.61 880.055" stroke="#292925" stroke-width="3.57194" stroke-linecap="round" stroke-linejoin="round"/>
<path id="Vector_35" d="M2631.48 902.558L2519.41 902.678" stroke="#292925" stroke-width="3.57194" stroke-linecap="round" stroke-linejoin="round"/>
</g>
<g id="Group_6">
<path id="Vector_36" d="M2380.99 1808.94L2227.84 1809.12" stroke="#292925" stroke-width="3.57194" stroke-linecap="round" stroke-linejoin="round"/>
<path id="Vector_37" d="M2365.17 1831.56L2227.6 1831.68" stroke="#292925" stroke-width="3.57194" stroke-linecap="round" stroke-linejoin="round"/>
</g>
<g id="Group_7">
<path id="Vector_38" d="M3500.57 900.994L3347.41 901.114" stroke="#292925" stroke-width="3.57194" stroke-linecap="round" stroke-linejoin="round"/>
<path id="Vector_39" d="M3484.74 923.617L3347.17 923.737" stroke="#292925" stroke-width="3.57194" stroke-linecap="round" stroke-linejoin="round"/>
</g>
<g id="Group_8">
<path id="Vector_40" d="M4112.59 1282.16L3959.44 1282.28" stroke="#292925" stroke-width="3.57194" stroke-linecap="round" stroke-linejoin="round"/>
<path id="Vector_41" d="M4096.77 1304.79L3959.2 1304.91" stroke="#292925" stroke-width="3.57194" stroke-linecap="round" stroke-linejoin="round"/>
</g>
</g>
</g>
</g>
</g>
<path id="Vector_42" d="M1590 898L1590 1057" stroke="#292925" stroke-width="3.57194" stroke-linecap="round" stroke-linejoin="round"/>
<path id="Vector_43" d="M1567 898L1567 1057" stroke="#292925" stroke-width="3.57194" stroke-linecap="round" stroke-linejoin="round"/>
<path id="Vector_44" d="M2050 902L2050 992" stroke="#292925" stroke-width="3.57194" stroke-linecap="round" stroke-linejoin="round"/>
<path id="Vector_45" d="M2027 902L2027 992" stroke="#292925" stroke-width="3.57194" stroke-linecap="round" stroke-linejoin="round"/>
<path id="Vector_46" d="M2532 901L2532 991" stroke="#292925" stroke-width="3.57194" stroke-linecap="round" stroke-linejoin="round"/>
<path id="Vector_47" d="M2509 901L2509 991" stroke="#292925" stroke-width="3.57194" stroke-linecap="round" stroke-linejoin="round"/>
<path id="Vector_48" d="M2333 1268L2219 1268" stroke="#292925" stroke-width="3.57194" stroke-linecap="round" stroke-linejoin="round"/>
<path id="Vector_49" d="M2333 1245L2219 1245" stroke="#292925" stroke-width="3.57194" stroke-linecap="round" stroke-linejoin="round"/>
<path id="Vector_50" d="M2843 1044L2926 1044" stroke="#292925" stroke-width="3.57194" stroke-linecap="round" stroke-linejoin="round"/>
<path id="Vector_51" d="M2843 1067H2926" stroke="#292925" stroke-width="3.57194" stroke-linecap="round" stroke-linejoin="round"/>
<path id="Vector_52" d="M2808 1327L2808 1244" stroke="#292925" stroke-width="3.57194" stroke-linecap="round" stroke-linejoin="round"/>
<path id="Vector_53" d="M2828 1327L2828 1244" stroke="#292925" stroke-width="3.57194" stroke-linecap="round" stroke-linejoin="round"/>
<path id="Vector_54" d="M1732 1325L1732 1242" stroke="#292925" stroke-width="3.57194" stroke-linecap="round" stroke-linejoin="round"/>
<path id="Vector_55" d="M1748 1325L1748 1242" stroke="#292925" stroke-width="3.57194" stroke-linecap="round" stroke-linejoin="round"/>
<path id="Vector_56" d="M713 924L713 1007" stroke="#292925" stroke-width="3.57194" stroke-linecap="round" stroke-linejoin="round"/>
<path id="Vector_57" d="M690 924L690 1007" stroke="#292925" stroke-width="3.57194" stroke-linecap="round" stroke-linejoin="round"/>
<path id="Vector_58" d="M3846 1005L3846 922" stroke="#292925" stroke-width="3.57194" stroke-linecap="round" stroke-linejoin="round"/>
<path id="Vector_59" d="M3869 1005L3869 922" stroke="#292925" stroke-width="3.57194" stroke-linecap="round" stroke-linejoin="round"/>
<path id="Vector_60" d="M2966 1047L2966 904" stroke="#292925" stroke-width="3.57194" stroke-linecap="round" stroke-linejoin="round"/>
<path id="Vector_61" d="M2989 1047L2989 904" stroke="#292925" stroke-width="3.57194" stroke-linecap="round" stroke-linejoin="round"/>
<path id="Vector_62" d="M472 901L564 901" stroke="#292925" stroke-width="3.57194" stroke-linecap="round" stroke-linejoin="round"/>
<path id="Vector_63" d="M472 924H564" stroke="#292925" stroke-width="3.57194" stroke-linecap="round" stroke-linejoin="round"/>
<path id="Vector_64" d="M1631 1043L1714 1043" stroke="#292925" stroke-width="3.57194" stroke-linecap="round" stroke-linejoin="round"/>
<path id="Vector_65" d="M1631 1066H1714" stroke="#292925" stroke-width="3.57194" stroke-linecap="round" stroke-linejoin="round"/>
</g>
</svg>
