<svg width="32" height="21" viewBox="0 0 32 21" fill="none" xmlns="http://www.w3.org/2000/svg">
<path d="M15.7543 0.0548407C17.129 -0.110487 18.665 0.126142 20.0498 0.390353C28.551 2.04159 32.3019 10.5711 31.8518 18.3695C31.722 20.6186 21.8169 20.0593 21.2572 19.7553C18.9874 18.5222 21.0076 14.1299 16.5684 12.7901L16.3701 12.7312C12.1998 13.1272 12.7651 16.7855 11.6062 19.4483C11.1815 20.4243 1.8908 20.4741 0.711874 19.8949C0.361926 19.7229 -0.0332001 18.7538 0.0022197 18.3594C-0.0143095 9.24063 6.3655 1.05903 15.7543 0.0548407Z" fill="#292925"/>
<rect x="17.1404" y="9.86523" width="14.09" height="7.91018" rx="1.23597" transform="rotate(165 17.1404 9.86523)" fill="white"/>
<rect width="14.09" height="7.91018" rx="1.23597" transform="matrix(0.965926 0.258819 0.258819 -0.965926 13.8008 9.86523)" fill="white"/>
<circle cx="21.3821" cy="6.05561" r="2.84272" fill="#292925"/>
<circle cx="9.76411" cy="6.30366" r="2.84272" fill="#292925"/>
</svg>
