<svg width="32" height="21" viewBox="0 0 32 21" fill="none" xmlns="http://www.w3.org/2000/svg">
<path d="M19.1275 0C22.9143 0.0110526 23.7963 2.74421 24.2835 5.97947C24.4018 5.81842 24.5259 5.66052 24.6556 5.50737C25.3058 4.74 26.8398 3.47367 27.841 3.5842C32.7711 4.25999 31.5883 10.7432 31.8329 14.1584C32.3614 21.5337 29.0505 20.6195 23.2668 20.6463L14.2758 20.6747C10.7182 20.681 3.88124 21.6758 3.27259 16.8758C2.88914 13.8505 4.38911 12.2021 7.27368 11.7521C6.77803 8.38577 5.19746 3.66789 8.9951 1.32316C9.9069 0.751579 11.0101 0.577889 12.0514 0.843152C13.7088 1.28052 14.463 2.35106 15.2828 3.73421C16.2163 1.73842 16.9136 0.506842 19.1275 0Z" fill="#292925"/>
<circle cx="20.2698" cy="13.1012" r="7.1686" fill="white"/>
<circle cx="7.1686" cy="13.1012" r="7.1686" fill="white"/>
<circle cx="20.2698" cy="18.0451" r="2.22474" fill="#292925"/>
<circle cx="7.16859" cy="18.0451" r="2.22474" fill="#292925"/>
</svg>
