<svg width="29" height="28" viewBox="0 0 29 28" fill="none" xmlns="http://www.w3.org/2000/svg">
<path d="M15.007 1.59212C17.74 1.33999 21.5395 1.51163 24.178 2.26237C27.3667 3.29259 27.5822 6.67374 24.7376 8.34592C23.6091 9.00942 20.9009 9.16676 20.4916 10.2275C21.2233 11.7194 26.3436 10.1901 27.9248 11.8289C28.4906 12.4145 28.7061 12.74 28.7883 13.6165C29.2487 18.4436 21.4961 17.4777 20.5784 18.5991C20.6683 19.3756 21.5674 19.5152 22.3627 19.4625C25.9266 19.3317 31.281 20.4827 27.7837 25.146C26.2955 27.1313 15.6209 28.2961 15.7217 25.6616C16.2332 24.6682 17.0812 24.3616 18.0469 23.8728C18.6407 23.6983 20.4343 25.3881 21.2853 22.9988L21.1706 22.7567C20.1785 22.3748 18.8965 23.3918 17.8966 23.5348C14.8427 23.9828 10.358 25.8942 7.57692 23.8665C4.33702 21.5039 9.01086 18.7228 11.2617 18.5684C12.6461 18.4735 14.2784 18.6976 15.1558 17.7028C14.3079 16.1782 7.61568 18.3092 6.57395 14.8968C5.36015 10.9227 12.0027 10.7519 14.1219 9.97849C14.449 9.58961 14.3838 9.80275 14.3807 9.33888C11.995 8.77945 9.44182 9.35052 7.35681 7.70286C5.88257 6.53636 6.48715 5.24551 7.48857 4.04757C9.24649 1.94516 12.4988 1.78955 15.007 1.59212Z" fill="#292925"/>
<circle cx="7.16856" cy="7.16831" r="7.1686" transform="rotate(-180 7.16856 7.16831)" fill="white"/>
<rect x="27.4385" y="11.124" width="14.09" height="7.91018" rx="1.23597" transform="rotate(-180 27.4385 11.124)" fill="white"/>
<circle cx="20.3934" cy="7.04487" r="2.84272" fill="#292925"/>
<circle cx="7.04499" cy="7.04487" r="2.84272" fill="#292925"/>
</svg>
