<svg width="28" height="26" viewBox="0 0 28 26" fill="none" xmlns="http://www.w3.org/2000/svg">
<path d="M20.0228 2.26264C21.1262 2.13272 22.9356 2.26531 22.7367 3.79451C22.4666 5.87093 20.1942 8.08562 18.8581 9.63432C19.9421 9.79083 21.3688 9.52673 21.9241 10.6674C21.9367 11.7425 20.7637 12.8819 20.0542 13.7469C21.4601 13.9443 23.9009 13.6078 25.0328 14.1546C28.4818 15.8203 23.3217 18.7037 22.1249 19.307C18.1174 21.3275 14.1597 23.4883 10.0234 25.1162C9.58949 25.2595 9.14406 25.3639 8.69212 25.4281C8.29662 25.4852 7.54995 25.4817 7.21771 25.3007C3.38966 23.2148 8.89693 18.9681 10.4579 17.2945C9.33057 17.257 8.03151 17.4571 7.47539 16.3081C7.52531 15.2297 8.8405 14.0712 9.57569 13.0122C8.30515 12.9139 7.07601 12.9033 5.91942 12.3629C5.03075 11.9478 4.61741 10.7877 5.2464 10.0999C8.0712 7.01131 16.2961 3.25264 20.0228 2.26264Z" fill="#292925"/>
<circle cx="7.1686" cy="7.1686" r="7.1686" fill="white"/>
<circle cx="20.2698" cy="7.1686" r="7.1686" fill="white"/>
<circle cx="4.57307" cy="10.7529" r="2.84272" fill="#292925"/>
<circle cx="17.6743" cy="10.7529" r="2.84272" fill="#292925"/>
</svg>
