<svg width="32" height="24" viewBox="0 0 32 24" fill="none" xmlns="http://www.w3.org/2000/svg">
<path d="M17.797 0C21.2777 0.834516 21.7878 3.37117 21.1816 6.64143C20.9614 7.21906 20.6591 7.8336 20.6761 8.43062C21.0033 8.22026 21.3832 7.2495 21.5987 6.82814C22.0778 6.42192 22.0995 6.17151 22.4002 5.64418C23.9026 3.01652 28.264 2.2965 28.7323 6.20368C29.0114 8.5325 27.7508 10.144 26.4593 11.8409C27.433 11.4535 29.3556 10.7661 30.1447 11.3529C36.5248 16.0947 23.5584 21.5985 20.5971 22.5433C16.3706 23.8908 15.2961 24.3784 11.7115 22.457C7.39037 20.2022 2.59638 16.7364 0.796314 11.9701C-0.451796 8.37291 2.35761 5.0082 5.77169 7.88311C6.46009 8.46343 7.02602 9.88046 7.37332 10.07C7.41518 8.6812 5.31588 5.65222 6.56399 3.44293C7.38418 1.98994 9.43076 1.26628 10.9161 2.04765C13.5239 3.42006 13.0945 6.31973 13.8325 8.41548C13.8775 8.40271 13.9239 8.38994 13.9689 8.37701C14.0852 4.38594 13.1518 1.14659 17.797 0Z" fill="#292925"/>
<path d="M14.3372 16.5622C14.3372 17.5035 14.1518 18.4357 13.7915 19.3055C13.4313 20.1752 12.9032 20.9655 12.2376 21.6311C11.5719 22.2968 10.7816 22.8248 9.9119 23.1851C9.04217 23.5453 8.10999 23.7308 7.1686 23.7308C6.22721 23.7308 5.29503 23.5453 4.4253 23.1851C3.55556 22.8248 2.7653 22.2968 2.09963 21.6311C1.43397 20.9655 0.905933 20.1752 0.545677 19.3055C0.185421 18.4357 -8.22993e-08 17.5035 0 16.5622L7.1686 16.5622H14.3372Z" fill="white"/>
<path d="M27.4384 16.5622C27.4384 17.5035 27.253 18.4357 26.8927 19.3055C26.5325 20.1752 26.0044 20.9655 25.3388 21.6311C24.6731 22.2968 23.8828 22.8248 23.0131 23.1851C22.1434 23.5453 21.2112 23.7308 20.2698 23.7308C19.3284 23.7308 18.3962 23.5453 17.5265 23.1851C16.6568 22.8248 15.8665 22.2968 15.2008 21.6311C14.5352 20.9655 14.0071 20.1752 13.6469 19.3055C13.2866 18.4357 13.1012 17.5035 13.1012 16.5622L20.2698 16.5622H27.4384Z" fill="white"/>
<circle cx="4.32588" cy="19.4052" r="2.84272" fill="#292925"/>
<circle cx="17.6743" cy="19.4052" r="2.84272" fill="#292925"/>
</svg>
