<svg preserveAspectRatio="none" width="100%" height="100%" overflow="visible" style="display: block;" viewBox="0 0 73 62" fill="none" xmlns="http://www.w3.org/2000/svg">
<g id="Group 39796">
<path id="Vector 306" d="M3.78664 42.7363C-9.40473 12.7122 15.0184 2.26266 28.8789 0.790891C69.0266 -5.39053 74.762 26.1789 72.6112 42.7363C69.7435 58.7418 49.0049 61.6494 42.5005 52.6707C37.3028 45.4959 26.5489 47.7035 24.5774 52.6707C21.3736 60.7425 16.978 72.7603 3.78664 42.7363Z" fill="var(--fill-0, #FF88C8)"/>
<rect id="Rectangle 81" x="13.688" y="13.2856" width="23.2458" height="17.7143" rx="3.97321" fill="var(--fill-0, white)"/>
<rect id="Rectangle 82" x="35.7103" y="13.2856" width="23.2458" height="17.7143" rx="3.97321" fill="var(--fill-0, white)"/>
<path id="Ellipse 110" d="M33.6712 13.2856C33.6712 14.7849 33.4549 15.9236 33.0348 17.3088C32.6146 18.6941 31.9988 19.9527 31.2225 21.0129C30.4462 22.0731 29.5245 22.9141 28.5102 23.4879C27.4959 24.0617 26.4087 24.357 25.3108 24.357C24.2129 24.357 23.1258 24.0617 22.1115 23.4879C21.0972 22.9141 20.1755 22.0731 19.3992 21.0129C18.6229 19.9527 18.007 18.6941 17.5869 17.3088C17.1668 15.9236 16.9505 14.7849 16.9505 13.2856H25.3108H33.6712Z" fill="var(--fill-0, #292925)"/>
<path id="Ellipse 111" d="M55.6936 13.2856C55.6936 14.7849 55.4773 15.9236 55.0572 17.3088C54.637 18.6941 54.0212 19.9527 53.2449 21.0129C52.4685 22.0731 51.5469 22.9141 50.5326 23.4879C49.5183 24.0617 48.4311 24.357 47.3332 24.357C46.2353 24.357 45.1482 24.0617 44.1339 23.4879C43.1195 22.9141 42.1979 22.0731 41.4216 21.0129C40.6452 19.9527 40.0294 18.6941 39.6093 17.3088C39.1891 15.9236 38.9729 14.7849 38.9729 13.2856H47.3332H55.6936Z" fill="var(--fill-0, #292925)"/>
</g>
</svg>
