<svg preserveAspectRatio="none" width="100%" height="100%" overflow="visible" style="display: block;" viewBox="0 0 66.1326 49.2149" fill="none" xmlns="http://www.w3.org/2000/svg">
<g id="figur">
<path id="Vector" d="M36.9093 0C44.128 1.73071 45.1859 6.9915 43.9287 13.7737C43.4721 14.9717 42.845 16.2462 42.8804 17.4843C43.5589 17.0481 44.3467 15.0348 44.7936 14.1609C45.7872 13.3185 45.8322 12.7991 46.456 11.7055C49.5718 6.25599 58.617 4.76273 59.5881 12.8659C60.1669 17.6956 57.5527 21.0377 54.8742 24.557C56.8935 23.7534 60.8807 22.3278 62.5174 23.5448C75.7491 33.3789 48.858 44.7934 42.7164 46.7527C33.951 49.5472 31.7227 50.5585 24.2885 46.5738C15.3269 41.8974 5.38466 34.7097 1.65149 24.8248C-0.936979 17.3646 4.88947 10.3865 11.97 16.3488C13.3976 17.5524 14.5713 20.4912 15.2916 20.8843C15.3784 18.004 11.0246 11.7222 13.6131 7.14032C15.3141 4.12695 19.5585 2.62615 22.639 4.24664C28.0474 7.09289 27.1567 13.1065 28.6873 17.4529C28.7805 17.4264 28.877 17.4 28.9702 17.3731C29.2114 9.09603 27.2757 2.37793 36.9093 0Z" fill="var(--fill-0, #FF88C8)"/>
<g id="Augen">
<path id="Auge links" d="M29.734 34.3479C29.734 36.3003 29.3495 38.2335 28.6023 40.0373C27.8552 41.841 26.7601 43.48 25.3796 44.8605C23.999 46.241 22.3601 47.3361 20.5564 48.0832C18.7526 48.8304 16.8194 49.2149 14.867 49.2149C12.9146 49.2149 10.9814 48.8304 9.17765 48.0832C7.3739 47.3361 5.73498 46.241 4.35445 44.8605C2.97392 43.48 1.87882 41.841 1.13168 40.0373C0.384546 38.2335 -1.70681e-07 36.3003 0 34.3479L14.867 34.3479H29.734Z" fill="var(--fill-0, white)"/>
<path id="Auge rechts" d="M56.9048 34.3479C56.9048 36.3003 56.5202 38.2335 55.7731 40.0373C55.0259 41.841 53.9308 43.48 52.5503 44.8605C51.1698 46.241 49.5309 47.3361 47.7271 48.0832C45.9234 48.8304 43.9901 49.2149 42.0378 49.2149C40.0854 49.2149 38.1521 48.8304 36.3484 48.0832C34.5446 47.3361 32.9057 46.241 31.5252 44.8605C30.1447 43.48 29.0496 41.841 28.3024 40.0373C27.5553 38.2335 27.1707 36.3003 27.1707 34.3479L42.0378 34.3479H56.9048Z" fill="var(--fill-0, white)"/>
<circle id="Pupille links" cx="8.97147" cy="40.2435" r="5.89554" fill="var(--fill-0, #292925)"/>
<circle id="Pupille rechts" cx="36.6549" cy="40.2435" r="5.89554" fill="var(--fill-0, #292925)"/>
</g>
</g>
</svg>
