<svg preserveAspectRatio="none" width="100%" height="100%" overflow="visible" style="display: block;" viewBox="0 0 62.1968 40.5003" fill="none" xmlns="http://www.w3.org/2000/svg">
<g id="figur">
<path id="Vector" d="M37.3079 0C44.6941 0.021558 46.4142 5.35253 47.3645 11.6629C47.5953 11.3487 47.8374 11.0408 48.0904 10.742C49.3585 9.24529 52.3507 6.77534 54.3035 6.99092C63.9196 8.30904 61.6124 20.9544 62.0895 27.6158C63.1204 42.0011 56.6625 40.2179 45.3815 40.2703L27.8447 40.3257C20.9058 40.338 7.57032 42.2782 6.38314 32.9159C5.63525 27.0152 8.5609 23.8 14.1872 22.9222C13.2204 16.3563 10.1376 7.15416 17.5448 2.5808C19.3233 1.46594 21.4751 1.12716 23.506 1.64455C26.7387 2.49763 28.2098 4.58569 29.8088 7.28352C31.6297 3.39077 32.9896 0.988586 37.3079 0Z" fill="var(--fill-0, #FF88C8)"/>
<g id="Augen">
<circle id="Auge rechts" cx="39.536" cy="25.5537" r="13.9822" fill="var(--fill-0, white)"/>
<circle id="Auge links" cx="13.9822" cy="25.5537" r="13.9822" fill="var(--fill-0, white)"/>
<circle id="Pupille rechts" cx="39.536" cy="35.1967" r="4.33931" fill="var(--fill-0, #292925)"/>
<circle id="Pupille links" cx="13.9822" cy="35.1967" r="4.33931" fill="var(--fill-0, #292925)"/>
</g>
</g>
</svg>
