<svg preserveAspectRatio="none" width="100%" height="100%" overflow="visible" style="display: block;" viewBox="0 0 63.5661 39.7288" fill="none" xmlns="http://www.w3.org/2000/svg">
<g id="figur">
<path id="Vector" d="M25.189 0.0498268C37.8968 -0.688129 44.6222 6.81865 44.1857 19.3989C44.9965 20.8239 45.728 22.5257 47.1672 23.1905C49.8238 22.6593 48.1479 19.3162 54.2839 19.2271C56.7452 19.1953 59.1114 20.1909 60.829 21.9786C62.6607 23.8839 63.6471 26.4635 63.5609 29.1227C63.3132 37.3452 56.325 39.8867 49.3892 39.7213C45.2182 39.0788 43.2059 37.5361 39.8561 35.1727C37.5315 36.4705 35.7587 37.412 33.167 38.0864C28.1667 39.3714 22.8688 38.5953 18.4313 35.9265C14.0697 33.2705 11.1685 29.0114 9.99804 24.0111C8.74984 18.7945 9.59796 13.2885 12.3552 8.70489C15.4684 3.63145 19.5961 1.31898 25.189 0.0498268Z" fill="var(--fill-0, #292925)"/>
<g id="Augen">
<rect id="Auge rechts" x="24.7461" y="7.82294" width="28.3068" height="15.8915" rx="2.48305" transform="rotate(-15 24.7461 7.82294)" fill="var(--fill-0, white)"/>
<rect id="Auge links" width="28.3068" height="15.8915" rx="2.48305" transform="matrix(-0.965926 -0.258819 -0.258819 0.965926 31.4553 7.82294)" fill="var(--fill-0, white)"/>
<circle id="Pupille rechts" cx="39.9771" cy="8.69068" r="5.71102" fill="var(--fill-0, #292925)"/>
<circle id="Pupille links" cx="15.1466" cy="9.18729" r="5.71102" fill="var(--fill-0, #292925)"/>
</g>
</g>
</svg>
