<svg preserveAspectRatio="none" width="100%" height="100%" overflow="visible" style="display: block;" viewBox="0 0 60.8553 39.6267" fill="none" xmlns="http://www.w3.org/2000/svg">
<g id="figur">
<path id="Vector" d="M36.5032 0C43.73 0.021093 45.4131 5.23708 46.3429 11.4113C46.5687 11.1039 46.8055 10.8026 47.0531 10.5103C48.2938 9.04587 51.2215 6.6292 53.1322 6.84013C62.5409 8.12982 60.2834 20.5024 60.7503 27.0201C61.7589 41.0951 55.4404 39.3504 44.4027 39.4017L27.2441 39.4559C20.4548 39.4679 7.40703 41.3663 6.24546 32.2059C5.5137 26.4325 8.37624 23.2866 13.8812 22.4278C12.9353 16.0035 9.91891 6.99985 17.1664 2.52513C18.9065 1.43432 21.0119 1.10285 22.999 1.60908C26.162 2.44376 27.6013 4.48678 29.1658 7.12642C30.9474 3.31763 32.2781 0.967263 36.5032 0Z" fill="var(--fill-0, #FF88C8)"/>
<g id="Augen">
<circle id="Auge rechts" cx="38.6832" cy="25.0026" r="13.6806" fill="var(--fill-0, white)"/>
<circle id="Auge links" cx="13.6806" cy="25.0026" r="13.6806" fill="var(--fill-0, white)"/>
<circle id="Pupille rechts" cx="38.6832" cy="34.4375" r="4.24572" fill="var(--fill-0, #292925)"/>
<circle id="Pupille links" cx="13.6806" cy="34.4375" r="4.24572" fill="var(--fill-0, #292925)"/>
</g>
</g>
</svg>
