<svg preserveAspectRatio="none" width="100%" height="100%" overflow="visible" style="display: block;" viewBox="0 0 54.9355 50.5601" fill="none" xmlns="http://www.w3.org/2000/svg">
<g id="figur">
<path id="Vector" d="M32.4411 0C37.7414 0.194266 40.3933 4.72417 39.6902 9.69485C39.3218 12.3018 38.4913 13.8184 37.1929 16.0755C41.6839 17.3951 44.7937 18.6068 48.3592 21.9456C54.2539 27.3878 57.7041 41.3258 52.0799 47.7882C48.8651 51.4826 36.5272 50.4258 31.568 50.4037C25.203 50.2325 15.9718 51.5401 14.5666 43.4655C13.2076 35.9733 14.8349 28.242 19.0941 21.957C16.3244 19.2655 15.5289 18.5505 18.2255 15.4069C19.722 16.4394 21.4208 17.2337 23.0475 18.0526C24.9632 17.0871 27.6782 16.1607 29.7335 15.391C24.3743 9.90234 23.544 1.64419 32.4411 0Z" fill="var(--fill-0, #292925)"/>
<g id="Augen">
<rect id="Auge rechts" x="53.9632" y="47.1571" width="27.7108" height="15.557" rx="2.43078" transform="rotate(-180 53.9632 47.1571)" fill="var(--fill-0, white)"/>
<path id="Auge links" d="M14.0986 24.3078C21.885 24.3078 28.1973 30.62 28.1973 38.4064C28.1972 41.7128 27.0583 44.7531 25.1523 47.1574H3.04492C1.13886 44.7531 3.092e-05 41.7129 0 38.4064C6.80707e-07 30.62 6.31225 24.3078 14.0986 24.3078Z" fill="var(--fill-0, white)"/>
<circle id="Pupille rechts" cx="49.1017" cy="40.3509" r="3.40309" fill="var(--fill-0, #292925)"/>
<circle id="Pupille links" cx="20.4185" cy="40.3509" r="3.40309" fill="var(--fill-0, #292925)"/>
</g>
</g>
</svg>
