<svg width="192" height="142" viewBox="0 0 192 142" fill="none" xmlns="http://www.w3.org/2000/svg">
<path d="M128.801 0.00961856C129.032 0.00104347 129.264 -0.00547868 129.495 0.00671968C130.474 0.0587741 131.349 0.482334 131.965 1.0722C134.09 3.10559 133.905 6.94662 133.444 9.43787C132.923 12.2554 131.51 14.8352 130.442 17.5285C129.188 20.6939 128.068 23.9107 126.946 27.1065C125.562 31.0489 124.023 35.1914 123.552 39.2693C123.5 39.7216 123.428 40.3258 123.839 40.6822C124.063 40.875 124.396 40.9665 124.722 40.9628C127.811 40.9274 135.603 32.5073 138.122 30.5879C139.338 29.6619 141.274 28.2887 143.097 28.3649C143.712 28.3905 144.192 28.5868 144.596 28.9478C147.037 31.1289 141.919 36.7981 140.393 38.7655C139.272 40.2085 138.145 41.6483 137.12 43.136C135.924 44.875 134.64 46.9186 134.515 48.9179C134.443 50.0501 134.83 51.1295 135.815 51.9727C140.716 56.1692 159.439 53.2026 165.398 50.9228C167.663 50.0558 169.246 48.7603 171.151 47.5216C174.618 45.2657 179.788 42.6942 184.408 42.9076C186.375 42.9986 188.108 43.66 189.406 44.8308C190.815 46.1005 192.201 48.4009 191.976 50.1302C191.441 54.2498 180.182 54.9039 176.08 55.896C172.46 56.7716 169.197 58.37 165.547 59.2646C163.295 59.805 161.021 60.2878 158.73 60.7121C154.245 61.5457 149.371 62.2145 145.203 63.362C139.108 65.1586 144.692 66.2486 144.964 68.2764C145.183 69.895 130.991 69.9788 130.844 72.4059C134.426 78.9422 175.38 78.803 178.985 84.3498C179.394 84.9792 179.465 85.7123 179.18 86.3832C178.79 87.2836 177.857 88.0474 176.908 88.6036C168.167 93.7275 145.92 85.4804 138.181 88.7156C126.34 93.6652 160.565 128.723 156.399 138.955C155.969 140.01 155.03 140.838 153.783 141.336C151.968 142.06 149.634 142.205 147.704 141.705C141.448 140.088 137.482 131.467 135.136 127.093C133.764 124.536 132.42 121.961 130.844 119.475C129.667 117.619 128.339 115.76 126.651 114.16C124.401 112.027 116.435 106.944 113.118 106.097C112.035 105.819 110.877 105.669 109.829 106.122C109.013 106.475 108.323 107.136 108.058 107.843C107.572 109.147 107.731 110.927 107.642 112.295C107.402 115.956 107.159 119.91 105.74 123.426C105.316 124.477 104.574 125.972 103.213 126.466C102.627 126.678 102.018 126.646 101.431 126.456C96.7019 124.93 91.644 114.854 89.5818 111.164C87.7268 107.843 92.2206 96.2062 90.862 95.8233C83.1764 93.6554 64.9634 124.6 57.7448 127.146C56.709 127.512 55.5071 127.636 54.4379 127.273C53.6205 126.995 52.682 126.397 52.3593 125.739C50.0068 120.939 67.4369 110.758 69.9793 106.235L70.0647 106.081C68.8616 104.131 67.9165 103.613 65.1679 103.602C63.4347 103.807 61.7642 104.285 60.0368 104.486C59.1759 104.585 58.1291 104.63 57.4158 104.171C55.7967 103.126 56.2717 100.34 56.0429 98.8465C55.8638 97.6782 55.2594 96.541 54.0329 95.8233C47.0381 91.7303 30.9225 105.601 23.0526 106.376C21.8094 106.498 20.7514 106.38 19.7359 105.753C18.6104 105.057 17.7496 103.975 17.609 102.837C16.8443 96.6522 40.2753 90.931 44.9926 86.0874C45.6884 85.3732 46.0429 84.6757 45.8805 83.7573C45.5227 81.7343 44.0726 79.7267 42.0016 78.5049C36.4935 75.2557 27.2197 76.292 20.9413 77.3325C18.447 77.7458 15.9503 78.3556 13.4276 78.627C9.96672 78.9992 6.1334 78.813 3.27986 77.0557C1.48655 75.9661 0.324454 74.352 0.0557254 72.5778C-0.138824 71.2814 0.158656 69.9604 1.22485 68.9311C2.79777 67.4131 5.48903 66.929 7.84947 66.7858C11.0465 66.5919 14.2526 67.0447 17.4107 67.3754C23.9426 68.0595 31.0453 69.0091 37.6178 68.4387C39.6768 68.2601 42.1134 67.8465 43.4595 66.4806C44.0093 65.9228 44.4512 65.1253 44.1724 64.4187C43.2333 62.0377 35.8438 60.0172 35.3997 56.3935C35.3421 55.922 35.4698 55.4671 35.8639 55.1005C38.4777 52.6696 44.8507 54.4914 48.3055 54.1446C48.81 54.094 49.1077 53.885 49.4088 53.5755C50.327 52.6315 50.8383 51.1118 50.6023 49.9349C49.451 44.1945 34.0039 39.812 27.935 38.0428C23.6919 36.8059 19.1827 35.9861 15.4812 33.837C13.3547 32.6023 11.2541 30.8292 10.8555 28.686C10.5866 27.2395 11.1475 25.8418 12.2716 24.695C13.7251 23.2122 15.9509 22.3698 18.2762 22.1361C30.6403 20.8936 49.2539 35.643 58.8538 41.4553C60.2355 42.2919 63.4782 44.432 65.2609 44.1584C65.7797 44.0787 66.172 43.7562 66.4401 43.4155C71.8008 36.6039 44.6707 20.2831 42.3425 11.7889C41.9981 10.5319 42.0277 9.10114 42.9579 7.99834C44.1734 6.55724 46.5355 5.66966 48.6334 5.35673C62.0193 3.3597 64.3642 28.583 73.8916 33.6352C75.8949 34.6975 78.0141 34.8025 80.333 34.4467C84.0296 33.8795 87.0886 32.6818 89.2149 30.1527C92.8369 25.8443 89.9453 23.6503 88.8901 19.4214C88.4522 17.6661 88.2859 15.3302 89.6455 13.7798C90.2054 13.1413 90.9828 12.6925 91.9691 12.5779C93.0923 12.4475 94.1568 12.8128 95.0286 13.3453C99.2637 15.9299 97.2616 20.6941 96.5122 24.1429C96.1283 25.9065 95.8301 27.8779 96.1543 29.6536C96.3608 30.7877 96.9496 31.9067 98.1701 32.5859C98.7269 32.8958 99.2362 33.0933 99.9214 32.9898C102.384 31.7166 102.609 28.8296 105.889 28.3323C109.647 27.6855 109.652 31.6754 110.021 33.6363C110.253 35.8718 113.694 36.3576 114.947 34.4217C117.252 30.8633 117.218 25.7682 117.679 21.8419C117.913 19.9562 118.235 18.0782 118.648 16.2118C119.655 11.6551 122.36 1.55857 128.801 0.00961856Z" fill="#292925"/>
</svg>
