<svg preserveAspectRatio="none" width="100%" height="100%" overflow="visible" style="display: block;" viewBox="0 0 53.5182 49.661" fill="none" xmlns="http://www.w3.org/2000/svg">
<g id="figur">
<path id="Vector" d="M39.0541 4.41349C41.2063 4.16008 44.7356 4.4187 44.3476 7.40138C43.8208 11.4514 39.3885 15.7711 36.7825 18.7918C38.8968 19.0971 41.6795 18.582 42.7627 20.8069C42.7872 22.9038 40.4993 25.1263 39.1155 26.8133C41.8576 27.1984 46.6183 26.5421 48.8261 27.6086C55.5533 30.8575 45.4885 36.4814 43.1543 37.6583C35.3376 41.5991 27.6183 45.8139 19.5506 48.9889C18.7042 49.2684 17.8354 49.4721 16.9539 49.5973C16.1824 49.7087 14.7261 49.7019 14.078 49.3488C6.61151 45.2804 17.3533 36.9971 20.3979 33.7328C18.1992 33.6598 15.6653 34.0501 14.5806 31.8089C14.678 29.7055 17.2433 27.446 18.6772 25.3803C16.1991 25.1885 13.8017 25.168 11.5458 24.1138C9.81241 23.3042 9.00622 21.0416 10.233 19.6999C15.7428 13.6757 31.7853 6.34447 39.0541 4.41349Z" fill="var(--fill-0, #FF88C8)"/>
<g id="Augen">
<circle id="Auge links" cx="13.9822" cy="13.9822" r="13.9822" fill="var(--fill-0, white)"/>
<circle id="Auge rechts" cx="39.536" cy="13.9822" r="13.9822" fill="var(--fill-0, white)"/>
<circle id="Pupille links" cx="8.9197" cy="20.9734" r="5.54468" fill="var(--fill-0, #292925)"/>
<circle id="Pupille rechts" cx="34.4734" cy="20.9734" r="5.54468" fill="var(--fill-0, #292925)"/>
</g>
</g>
</svg>
