<svg preserveAspectRatio="none" width="100%" height="100%" overflow="visible" style="display: block;" viewBox="0 0 53.383 49.5356" fill="none" xmlns="http://www.w3.org/2000/svg">
<g id="figur">
<path id="Vector" d="M38.9554 4.40234C41.1021 4.14957 44.6225 4.40754 44.2355 7.38268C43.7101 11.4225 39.289 15.7313 36.6895 18.7443C38.7986 19.0488 41.5742 18.535 42.6547 20.7543C42.6791 22.8459 40.3969 25.0628 39.0166 26.7456C41.7519 27.1296 46.5005 26.4751 48.7027 27.5388C55.4129 30.7796 45.3736 36.3892 43.0453 37.5631C35.2483 41.494 27.5485 45.6981 19.5012 48.8651C18.6569 49.1439 17.7903 49.3471 16.911 49.472C16.1416 49.5831 14.6889 49.5763 14.0425 49.2241C6.5948 45.1659 17.3095 36.9037 20.3464 33.6476C18.1532 33.5748 15.6258 33.964 14.5438 31.7285C14.6409 29.6304 17.1997 27.3766 18.63 25.3162C16.1582 25.1249 13.7668 25.1044 11.5166 24.0529C9.78762 23.2453 8.98346 20.9884 10.2072 19.6502C15.703 13.6411 31.705 6.32844 38.9554 4.40234Z" fill="var(--fill-0, #292925)"/>
<g id="Augen">
<circle id="Auge links" cx="13.9469" cy="13.9469" r="13.9469" fill="var(--fill-0, white)"/>
<circle id="Auge rechts" cx="39.4361" cy="13.9469" r="13.9469" fill="var(--fill-0, white)"/>
<circle id="Pupille links" cx="8.89716" cy="20.9204" r="5.53067" fill="var(--fill-0, #292925)"/>
<circle id="Pupille rechts" cx="34.3863" cy="20.9204" r="5.53067" fill="var(--fill-0, #292925)"/>
</g>
</g>
</svg>
