<svg width="182" height="131" viewBox="0 0 182 131" fill="none" xmlns="http://www.w3.org/2000/svg">
<path d="M62.3325 7.92075C61.6282 6.10278 61.4167 3.99456 62.9156 2.40365C65.207 -0.0283916 69.4174 -0.823098 72.5514 0.993087C73.1598 1.42412 73.3139 1.56092 73.8191 2.0605L74.4251 2.79243C74.6612 3.15053 74.9629 3.57917 75.16 3.94454C75.8987 5.48792 76.5957 7.71132 76.546 9.32733C76.3535 15.5635 74.8608 20.5048 76.7712 26.7843C77.7354 31.2377 80.2207 34.5683 86.4934 32.6122C94.529 30.1064 98.4349 17.3949 108.976 20.7913C113.085 22.1156 119.156 26.4926 122.907 28.7951C124.359 29.6428 125.802 30.4987 127.239 31.3626C130.433 33.1113 133.111 34.5689 136.565 35.9959C141.413 37.9998 147.614 38.2027 150.916 42.1001C151.883 43.2633 152.278 44.0689 152.81 45.4238C153.312 46.964 154.121 50.7121 155.818 51.4821C156.603 51.8386 157.492 51.7344 158.316 51.5221C160.964 50.8391 166.268 47.3865 168.847 48.3761C169.56 48.6495 169.902 49.1689 170.14 49.7548C170.342 50.2543 170.363 50.7358 170.068 51.2154C168.187 54.2786 155.178 54.7526 156.922 59.057C157.315 60.0268 158.225 60.7479 159.344 61.1856C164.633 63.2564 179.437 59.8904 181.708 64.6194C182.143 65.5257 182.083 66.5746 181.585 67.4555C180.583 69.2283 177.909 70.1414 175.774 70.7457C173.497 71.3904 171.135 71.8444 168.804 72.3417C165.139 73.1233 159.912 73.9692 158.091 77.0211C157.051 78.7667 156.668 81.1002 157.099 83.0083C157.408 84.3893 158.208 85.8987 157.745 87.3096C156.801 90.1941 149.345 91.5143 148.802 95.6931C148.652 96.8469 149.107 98.0664 149.582 99.1395C151.299 103.023 154.993 107.731 152.501 111.888C152.346 112.146 152.166 112.394 151.988 112.641C150.401 114.518 148.547 116.186 146.115 117.352C144.959 117.772 143.805 118.041 142.524 117.97C135.614 117.59 128.047 108.593 122.559 108.874C122.036 108.901 121.445 109.023 121.116 109.379C119.238 111.412 127.81 117.636 127.858 118.766C127.874 119.162 127.597 119.532 127.273 119.808C126.809 120.201 126.225 120.421 125.553 120.426C121.302 120.46 116.108 114.324 113.352 112.093L113.214 111.982C112.459 111.48 111.843 111.157 111.021 110.721C102.417 107.503 96.5625 112.354 99.9348 119.409C101.298 122.26 104.647 123.306 107.027 125.409C108.519 126.731 107.015 128.458 105.317 128.978C101.657 129.858 97.4575 125.313 95.6183 123.356C93.7262 121.37 91.8636 118.804 90.3256 116.698C88.09 113.636 86.0888 108.78 81.3104 107.885C74.9417 106.691 73.2653 109.884 75.5298 114.113C76.6683 116.24 77.6287 117.813 78.9245 119.851C79.5691 121.019 79.5138 122.409 79.5396 123.679C79.5756 125.45 78.4066 129.151 75.3278 127.788C71.7355 126.199 71.1885 121.742 70.1158 118.903C69.4719 117.216 68.7062 115.218 66.0128 115.793C65.3453 115.974 65.0253 116.034 64.4289 116.349L63.9633 116.577C63.2598 117.154 63.0085 117.526 62.525 118.241C60.4404 122.161 54.0908 133.822 46.9241 130.369C43.3473 128.646 43.2978 124.783 42.7052 121.861C41.6297 116.557 36.3781 112.307 31.0681 109.423C29.7831 108.798 28.6265 108.342 27.2798 107.841C25.9311 107.408 24.5489 107.048 23.142 106.762C20.5203 106.233 15.6747 105.678 14.0375 103.777C10.8542 100.079 19.3297 93.8996 19.773 89.8045C20.0992 88.2223 19.6484 86.5354 18.473 85.2352C17.1632 83.7874 14.9686 82.9326 12.7522 82.9475C11.492 82.9674 10.2391 83.2863 9.00084 83.4387C6.36481 83.7625 2.58664 83.5702 0.945466 81.6104C-0.436418 79.9604 -0.448836 77.7913 1.88611 76.7391C3.16435 76.1632 5.02706 76.1144 6.44485 76.3495C8.72631 76.7431 10.5534 77.9148 12.8753 78.3742C16.1747 79.0268 18.7506 78.5605 21.5679 77.1875C22.597 76.5727 23.1774 76.1134 23.9903 75.3292C26.1607 73.0784 26.5058 71.3674 25.8705 68.6078C25.698 67.8587 25.4754 67.1017 25.6134 66.3362C25.7842 65.3883 26.4949 64.7477 27.4142 64.1964C33.4813 60.5578 48.8654 63.4207 50.5047 62.389C50.5491 62.361 50.5912 62.3308 50.6351 62.3023C51.47 61.7597 52.0814 61.207 52.2968 60.3326C52.8441 58.1112 51.3515 56.7143 49.9467 55.0236C49.3496 54.3052 48.8536 53.452 49.1092 52.5659C49.2654 52.0238 49.7004 51.6248 50.2851 51.3488C53.7985 49.6903 54.6494 52.8679 57.4088 53.4478C58.6994 53.7192 59.9874 53.4012 61.1048 52.8667C62.3256 52.2825 63.76 51.1411 64.0722 49.9955C64.928 46.8561 58.6906 42.4088 56.6902 39.8695C56.0728 39.0856 55.5642 38.1435 55.8445 37.197C56.0478 36.5107 56.6993 35.8869 57.4365 35.5263C58.3592 35.0751 59.4529 35.0396 60.4947 35.1615C65.4743 35.7445 68.2266 39.2525 71.3504 39.8187C72.1156 39.9574 72.8471 39.7427 73.4836 39.3994C74.8176 38.6798 75.4857 37.5787 75.782 36.3388C77.366 29.7085 68.9764 16.6955 64.4014 11.2529C63.4688 10.1371 62.9096 9.17309 62.3325 7.92075Z" fill="#292925"/>
</svg>
