<svg preserveAspectRatio="none" width="100%" height="100%" overflow="visible" style="display: block;" viewBox="0 0 56.9048 52.8035" fill="none" xmlns="http://www.w3.org/2000/svg">
<g id="figur">
<path id="Vector" d="M41.5254 4.69277C43.8137 4.42332 47.5664 4.69831 47.1538 7.86973C46.5937 12.176 41.881 16.7691 39.11 19.981C41.3582 20.3055 44.3169 19.7578 45.4687 22.1235C45.4947 24.3531 43.062 26.7162 41.5907 28.51C44.5063 28.9194 49.5683 28.2217 51.9158 29.3556C59.0686 32.8102 48.367 38.7899 45.8851 40.0413C37.5737 44.2314 29.3659 48.7129 20.7877 52.0889C19.8877 52.3861 18.964 52.6027 18.0267 52.7357C17.2064 52.8542 15.6579 52.847 14.9689 52.4715C7.02987 48.1456 18.4514 39.3383 21.6886 35.8674C19.3508 35.7898 16.6566 36.2047 15.5033 33.8217C15.6068 31.5852 18.3344 29.1827 19.8591 26.9863C17.2241 26.7824 14.675 26.7606 12.2764 25.6397C10.4333 24.7789 9.57612 22.373 10.8806 20.9465C16.7389 14.5411 33.7967 6.74594 41.5254 4.69277Z" fill="var(--fill-0, #FF88C8)"/>
<g id="Augen">
<circle id="Auge links" cx="14.867" cy="14.867" r="14.867" fill="var(--fill-0, white)"/>
<circle id="Auge rechts" cx="42.0378" cy="14.867" r="14.867" fill="var(--fill-0, white)"/>
<circle id="Pupille links" cx="9.48413" cy="22.3005" r="5.89554" fill="var(--fill-0, #292925)"/>
<circle id="Pupille rechts" cx="36.6549" cy="22.3005" r="5.89554" fill="var(--fill-0, #292925)"/>
</g>
</g>
</svg>
