<svg preserveAspectRatio="none" width="100%" height="100%" overflow="visible" style="display: block;" viewBox="0 0 61.7147 38.5717" fill="none" xmlns="http://www.w3.org/2000/svg">
<g id="figur">
<path id="Vector" d="M24.4554 0.0483755C36.793 -0.668087 43.3225 6.62005 42.8988 18.8339C43.686 20.2174 44.3962 21.8696 45.7934 22.515C48.3726 21.9993 46.7456 18.7536 52.7028 18.6671C55.0924 18.6362 57.3898 19.6028 59.0573 21.3384C60.8357 23.1882 61.7933 25.6928 61.7096 28.2745C61.4691 36.2575 54.6845 38.725 47.9507 38.5644C43.9012 37.9406 41.9475 36.4428 38.6952 34.1483C36.4384 35.4082 34.7172 36.3224 32.201 36.9771C27.3463 38.2247 22.2028 37.4712 17.8945 34.8802C13.6599 32.3015 10.8432 28.1664 9.70684 23.3118C8.49499 18.2471 9.31842 12.9015 11.9954 8.45136C15.0178 3.52568 19.0254 1.28057 24.4554 0.0483755Z" fill="var(--fill-0, #FF88C8)"/>
<g id="Augen">
<rect id="Auge rechts" x="24.0253" y="7.59509" width="27.4823" height="15.4287" rx="2.41073" transform="rotate(-15 24.0253 7.59509)" fill="var(--fill-0, white)"/>
<rect id="Auge links" width="27.4823" height="15.4287" rx="2.41073" transform="matrix(-0.965926 -0.258819 -0.258819 0.965926 30.5391 7.59509)" fill="var(--fill-0, white)"/>
<circle id="Pupille rechts" cx="38.8128" cy="8.43756" r="5.54468" fill="var(--fill-0, #292925)"/>
<circle id="Pupille links" cx="14.7055" cy="8.9197" r="5.54468" fill="var(--fill-0, #292925)"/>
</g>
</g>
</svg>
