<svg preserveAspectRatio="xMidYMid meet" width="100%" height="100%" overflow="visible" style="display: block;" viewBox="0 0 128 80" fill="none" xmlns="http://www.w3.org/2000/svg">
<g id="figur">
<path id="Vector" d="M50.7219 0.100334C76.3109 -1.38565 89.8535 13.7304 88.9747 39.0626C90.6074 41.9321 92.0803 45.3589 94.9783 46.6975C100.328 45.6279 96.9532 38.8961 109.309 38.7167C114.265 38.6527 119.03 40.6575 122.488 44.2572C126.177 48.0938 128.163 53.2883 127.989 58.643C127.491 75.2002 113.419 80.318 99.4527 79.9849C91.0537 78.6911 87.0017 75.5846 80.2562 70.8256C75.5754 73.4388 72.0056 75.3348 66.7868 76.6927C56.7179 79.2803 46.0499 77.7175 37.1142 72.3436C28.3314 66.9953 22.4894 58.4189 20.1326 48.35C17.6191 37.8456 19.327 26.7584 24.8791 17.5286C31.1479 7.31247 39.4597 2.65597 50.7219 0.100334Z" fill="var(--fill-0, #292925)"/>
<g id="Augen">
<rect id="Auge rechts" x="49.83" y="15.7527" width="57" height="32" rx="5" transform="rotate(-15 49.83 15.7527)" fill="var(--fill-0, white)"/>
<rect id="Auge links" width="57" height="32" rx="5" transform="matrix(-0.965926 -0.258819 -0.258819 0.965926 63.34 15.7527)" fill="var(--fill-0, white)"/>
<circle id="Pupille rechts" cx="80.5" cy="17.5" r="11.5" fill="var(--fill-0, #292925)"/>
<circle id="Pupille links" cx="30.5" cy="18.5" r="11.5" fill="var(--fill-0, #292925)"/>
</g>
</g>
</svg>
