<svg width="44" height="33" viewBox="0 0 44 33" fill="none" xmlns="http://www.w3.org/2000/svg">
<path d="M19.1147 0.0150052C26.2138 -0.392742 25.5909 7.61542 29.2174 11.1267C29.9812 11.8653 32.4443 9.11126 34.7165 8.84564C35.7545 8.72448 36.7972 9.03438 37.5928 9.70542C40.5043 12.1845 42.8589 23.3358 43.473 27.2478C44.4919 33.7345 34.3188 32.3272 30.0524 32.3109C25.1859 32.3109 8.76069 33.1217 5.27376 31.8565C4.52526 31.5863 3.92504 31.2228 3.61456 30.4679C2.63197 28.082 4.1259 24.8596 5.11109 22.6927C7.50275 17.434 12.6013 5.58367 16.3089 1.7392C17.1542 0.863124 17.9779 0.441392 19.1147 0.0150052Z" fill="#292925"/>
<rect y="20.8574" width="20.8574" height="6.22062" rx="1.82959" fill="white"/>
<rect x="19.7596" y="20.8574" width="20.8574" height="6.22062" rx="1.82959" fill="white"/>
<mask id="mask0_959_5242" style="mask-type:alpha" maskUnits="userSpaceOnUse" x="4" y="20" width="13" height="8">
<rect x="4.39102" y="20.8574" width="12.0753" height="6.14358" rx="1.82959" fill="white"/>
</mask>
<g mask="url(#mask0_959_5242)">
<ellipse cx="10.4287" cy="23.833" rx="3.91918" ry="3.55176" fill="#292925"/>
</g>
<mask id="mask1_959_5242" style="mask-type:alpha" maskUnits="userSpaceOnUse" x="24" y="20" width="13" height="8">
<rect x="24.1506" y="20.8574" width="12.0753" height="6.14358" rx="1.82959" fill="white"/>
</mask>
<g mask="url(#mask1_959_5242)">
<ellipse cx="30.1883" cy="23.833" rx="3.91918" ry="3.55176" fill="#292925"/>
</g>
</svg>
