<svg preserveAspectRatio="xMidYMid meet" width="100%" height="100%" overflow="visible" style="display: block;" viewBox="0 0 129 82" fill="none" xmlns="http://www.w3.org/2000/svg">
<g id="figur">
<path id="Vector" d="M63.7326 0.221854C69.2941 -0.446966 75.5077 0.510297 81.1099 1.57914C115.501 8.2591 130.675 42.7645 128.854 74.3125C128.329 83.411 88.2584 81.1484 85.9944 79.9185C76.8119 74.93 84.9844 57.1616 67.0263 51.7413L66.2239 51.5029C49.3535 53.1049 51.6404 67.9045 46.952 78.6766C45.2338 82.6249 7.64909 82.8265 2.87983 80.4834C1.46414 79.7873 -0.134308 75.867 0.00897963 74.2713C-0.057888 37.3822 25.7511 4.28422 63.7326 0.221854Z" fill="var(--fill-0, #FF88C8)"/>
<g id="Augen">
<rect id="Auge links" x="69.34" y="39.9096" width="57" height="32" rx="5" transform="rotate(165 69.34 39.9096)" fill="var(--fill-0, white)"/>
<rect id="Auge rechts" width="57" height="32" rx="5" transform="matrix(0.965926 0.258819 0.258819 -0.965926 55.8301 39.9096)" fill="var(--fill-0, white)"/>
<circle id="Pupille rechts" cx="86.5" cy="24.5" r="11.5" fill="var(--fill-0, #292925)"/>
<circle id="Pupille links" cx="39.5" cy="25.5" r="11.5" fill="var(--fill-0, #292925)"/>
</g>
</g>
</svg>
