<svg preserveAspectRatio="xMidYMid meet" width="100%" height="100%" overflow="visible" style="display: block;" viewBox="0 0 113 104" fill="none" xmlns="http://www.w3.org/2000/svg">
<g id="figur">
<path id="Vector" d="M66.73 0C77.6324 0.399596 83.0873 9.71741 81.6411 19.9419C80.8833 25.3042 79.1749 28.4238 76.5041 33.0666C85.7419 35.781 92.1386 38.2734 99.4728 45.1411C111.598 56.3355 118.695 85.0053 107.126 98.2982C100.513 105.898 75.1349 103.724 64.934 103.678C51.8414 103.326 32.8533 106.016 29.9628 89.4066C27.1675 73.9955 30.5148 58.0926 39.2757 45.1645C33.5786 39.6283 31.9422 38.1577 37.4891 31.6914C40.5673 33.8152 44.0617 35.449 47.4078 37.1334C51.3483 35.1474 56.9328 33.2418 61.1606 31.6585C50.1368 20.3687 48.429 3.38203 66.73 0Z" fill="var(--fill-0, #FF88C8)"/>
<g id="Augen">
<rect id="Auge rechts" x="111" y="97" width="57" height="32" rx="5" transform="rotate(-180 111 97)" fill="var(--fill-0, white)"/>
<path id="Auge links" d="M29 50C45.0163 50 58 62.9837 58 79C58 85.8011 55.6577 92.0545 51.7373 97H6.2627C2.34229 92.0545 5.69148e-07 85.8011 0 79C1.40019e-06 62.9837 12.9837 50 29 50Z" fill="var(--fill-0, white)"/>
<circle id="Pupille rechts" cx="101" cy="83" r="7" fill="var(--fill-0, #292925)"/>
<circle id="Pupille links" cx="42" cy="83" r="7" fill="var(--fill-0, #292925)"/>
</g>
</g>
</svg>
