<svg width="67" height="50" viewBox="0 0 67 50" fill="none" xmlns="http://www.w3.org/2000/svg">
<path d="M37.1714 0C44.4414 1.743 45.5068 7.04115 44.2406 13.8715C43.7808 15.078 43.1493 16.3615 43.1849 17.6085C43.8682 17.1691 44.6616 15.1416 45.1117 14.2615C46.1124 13.413 46.1577 12.89 46.7859 11.7886C49.9239 6.30042 59.0333 4.79655 60.0112 12.9572C60.5941 17.8213 57.9614 21.1871 55.2639 24.7313C57.2975 23.9221 61.313 22.4864 62.9613 23.712C76.287 33.616 49.2049 45.1115 43.0198 47.0847C34.1921 49.8991 31.948 50.9175 24.461 46.9045C15.4358 42.1949 5.4229 34.9561 1.66321 25.0011C-0.943633 17.4879 4.92419 10.4603 12.055 16.4649C13.4928 17.677 14.6748 20.6367 15.4002 21.0326C15.4876 18.1319 11.1029 11.8054 13.7098 7.19102C15.4229 4.15626 19.6974 2.64479 22.7997 4.2768C28.2466 7.14326 27.3496 13.1996 28.891 17.5769C28.9849 17.5502 29.082 17.5235 29.176 17.4965C29.4188 9.16063 27.4694 2.39481 37.1714 0Z" fill="#292925"/>
<path d="M29.9452 34.5917C29.9452 36.558 29.5579 38.5049 28.8055 40.3215C28.053 42.138 26.9501 43.7886 25.5598 45.1789C24.1695 46.5693 22.5189 47.6722 20.7023 48.4246C18.8858 49.177 16.9388 49.5643 14.9726 49.5643C13.0064 49.5643 11.0594 49.177 9.24283 48.4246C7.42627 47.6721 5.7757 46.5693 4.38537 45.1789C2.99504 43.7886 1.89216 42.138 1.13972 40.3215C0.387277 38.5049 -1.71893e-07 36.558 0 34.5917L14.9726 34.5917H29.9452Z" fill="white"/>
<path d="M57.3089 34.5917C57.3089 36.558 56.9216 38.5049 56.1692 40.3215C55.4167 42.138 54.3138 43.7886 52.9235 45.1789C51.5332 46.5693 49.8826 47.6722 48.0661 48.4246C46.2495 49.177 44.3025 49.5643 42.3363 49.5643C40.3701 49.5643 38.4231 49.177 36.6065 48.4246C34.79 47.6721 33.1394 46.5693 31.7491 45.1789C30.3587 43.7886 29.2559 42.138 28.5034 40.3215C27.751 38.5049 27.3637 36.558 27.3637 34.5917L42.3363 34.5917H57.3089Z" fill="white"/>
<circle cx="9.03518" cy="40.5292" r="5.93741" fill="#292925"/>
<circle cx="36.9152" cy="40.5292" r="5.93741" fill="#292925"/>
</svg>
