<svg width="47" height="30" viewBox="0 0 47 30" fill="none" xmlns="http://www.w3.org/2000/svg">
<path d="M18.5601 0.036714C27.9236 -0.507036 32.8791 5.0242 32.5575 14.2937C33.1549 15.3437 33.6939 16.5977 34.7543 17.0875C36.7118 16.6961 35.477 14.2328 39.9981 14.1672C41.8117 14.1437 43.5552 14.8773 44.8208 16.1945C46.1705 17.5984 46.8973 19.4992 46.8337 21.4586C46.6512 27.5172 41.5021 29.3898 36.3916 29.268C33.3183 28.7945 31.8355 27.6578 29.3673 25.9164C27.6544 26.8726 26.3482 27.5664 24.4385 28.0633C20.7541 29.0101 16.8505 28.4383 13.5808 26.4719C10.367 24.5148 8.2293 21.3766 7.36688 17.6922C6.44717 13.8484 7.07209 9.79139 9.10374 6.41405C11.3976 2.67577 14.4391 0.97187 18.5601 0.036714Z" fill="#292925"/>
<rect x="18.2337" y="5.76465" width="20.8574" height="11.7094" rx="1.82959" transform="rotate(-15 18.2337 5.76465)" fill="white"/>
<rect width="20.8574" height="11.7094" rx="1.82959" transform="matrix(-0.965926 -0.258819 -0.258819 0.965926 23.1773 5.76465)" fill="white"/>
<circle cx="29.4564" cy="6.40435" r="4.20806" fill="#292925"/>
<circle cx="11.1605" cy="6.76959" r="4.20806" fill="#292925"/>
</svg>
