<svg preserveAspectRatio="xMidYMid meet" width="100%" height="100%" overflow="visible" style="display: block;" viewBox="0 0 117 110" fill="none" xmlns="http://www.w3.org/2000/svg">
<g id="figur">
<path id="Vector" d="M60.7098 6.43982C71.7659 5.41984 87.1366 6.11422 97.8102 9.15127C110.71 13.3189 111.582 26.9971 100.074 33.7618C95.5086 36.4459 84.5528 37.0824 82.8972 41.3735C85.8572 47.4088 106.571 41.2221 112.968 47.852C115.257 50.2207 116.128 51.5377 116.461 55.0834C118.323 74.6112 86.961 70.7036 83.2485 75.2401C83.6122 78.3815 87.2494 78.9461 90.4665 78.7331C104.884 78.204 126.545 82.8601 112.397 101.725C106.377 109.757 63.1932 114.469 63.6008 103.811C65.6703 99.7922 69.1006 98.5521 73.0076 96.5745C75.4094 95.8686 82.6652 102.705 86.1081 93.0389L85.644 92.0596C81.6305 90.5144 76.4442 94.6287 72.3993 95.2073C60.045 97.0196 41.9024 104.752 30.6519 96.5491C17.5451 86.9915 36.4528 75.7406 45.5586 75.1161C51.1587 74.732 57.7623 75.6389 61.3118 71.6143C57.8814 65.4467 30.8087 74.0675 26.5945 60.2628C21.6841 44.1861 48.5562 43.4948 57.1289 40.3662C58.4522 38.793 58.1887 39.6553 58.1762 37.7787C48.5248 35.5156 38.1962 37.8258 29.7615 31.1603C23.7976 26.4413 26.2433 21.2193 30.2945 16.3732C37.406 7.86803 50.563 7.2385 60.7098 6.43982Z" fill="var(--fill-0, #FF88C8)"/>
<g id="Augen">
<circle id="Auge links" cx="29" cy="29" r="29" transform="rotate(-180 29 29)" fill="var(--fill-0, white)"/>
<rect id="Auge rechts" x="111" y="45" width="57" height="32" rx="5" transform="rotate(-180 111 45)" fill="var(--fill-0, white)"/>
<circle id="Pupille rechts" cx="82.5" cy="28.5" r="11.5" fill="var(--fill-0, #292925)"/>
<circle id="Pupille links" cx="28.5" cy="28.5" r="11.5" fill="var(--fill-0, #292925)"/>
</g>
</g>
</svg>
