<svg width="56" height="51" viewBox="0 0 56 51" fill="none" xmlns="http://www.w3.org/2000/svg">
<path d="M32.6238 0C37.9539 0.19536 40.6208 4.75077 39.9138 9.74945C39.5433 12.371 38.7081 13.8962 37.4023 16.166C41.9186 17.4931 45.0459 18.7116 48.6315 22.0692C54.5594 27.542 58.0291 41.5585 52.3732 48.0573C49.1403 51.7726 36.7329 50.7098 31.7458 50.6876C25.3449 50.5154 16.0618 51.8304 14.6486 43.7103C13.282 36.1759 14.9184 28.4011 19.2016 22.0806C16.4163 19.374 15.6163 18.655 18.3282 15.4937C19.8331 16.532 21.5415 17.3308 23.1773 18.1543C25.1038 17.1833 27.834 16.2517 29.901 15.4776C24.5115 9.95811 23.6766 1.65345 32.6238 0Z" fill="#292925"/>
<rect x="54.2671" y="47.4219" width="27.8669" height="15.6446" rx="2.44447" transform="rotate(-180 54.2671 47.4219)" fill="white"/>
<path d="M14.1777 24.4443C22.0079 24.4443 28.3554 30.7919 28.3555 38.6221C28.3555 41.947 27.2105 45.0041 25.2939 47.4219H3.06152C1.14505 45.0041 -2.90665e-07 41.9469 0 38.6221C8.7993e-05 30.792 6.34763 24.4444 14.1777 24.4443Z" fill="white"/>
<circle cx="49.3782" cy="40.5775" r="3.42225" fill="#292925"/>
<circle cx="20.5335" cy="40.5775" r="3.42225" fill="#292925"/>
</svg>
