<svg preserveAspectRatio="xMidYMid meet" width="100%" height="100%" overflow="visible" style="display: block;" viewBox="0 0 129 96" fill="none" xmlns="http://www.w3.org/2000/svg">
<g id="figur">
<path id="Vector" d="M71.9962 0C86.0774 3.37597 88.1409 13.6378 85.6885 26.8674C84.7978 29.2041 83.5747 31.6902 83.6437 34.1054C84.9671 33.2544 86.5039 29.3273 87.3757 27.6227C89.3138 25.9794 89.4016 24.9663 90.6184 22.8331C96.6962 12.2031 114.34 9.29031 116.234 25.0965C117.363 34.5176 112.264 41.0366 107.039 47.9015C110.978 46.3341 118.756 43.5533 121.948 45.927C147.758 65.1098 95.3037 87.3752 83.3238 91.197C66.2258 96.6482 61.8792 98.6207 47.3778 90.8481C29.8972 81.7262 10.5035 67.7056 3.22143 48.4239C-1.8277 33.8719 9.53753 20.2603 23.3489 31.8905C26.1338 34.2381 28.4232 39.9706 29.8282 40.7374C29.9975 35.1191 21.505 22.8656 26.5541 13.9281C29.8721 8.05014 38.1514 5.12263 44.1602 8.28361C54.71 13.8356 52.9727 25.566 55.9582 34.0442C56.1401 33.9925 56.3282 33.9409 56.5101 33.8885C56.9805 17.743 53.2047 4.63845 71.9962 0Z" fill="var(--fill-0, #FF88C8)"/>
<g id="Augen">
<path id="Auge links" d="M58 67C58 70.8083 57.2499 74.5794 55.7925 78.0978C54.3351 81.6163 52.199 84.8132 49.5061 87.5061C46.8132 90.199 43.6163 92.3351 40.0978 93.7925C36.5794 95.2499 32.8083 96 29 96C25.1917 96 21.4206 95.2499 17.9022 93.7925C14.3837 92.3351 11.1868 90.199 8.4939 87.5061C5.801 84.8132 3.66488 81.6163 2.20749 78.0978C0.750107 74.5794 -3.32935e-07 70.8083 0 67L29 67H58Z" fill="var(--fill-0, white)"/>
<path id="Auge rechts" d="M111 67C111 70.8083 110.25 74.5794 108.793 78.0978C107.335 81.6163 105.199 84.8132 102.506 87.5061C99.8132 90.199 96.6163 92.3351 93.0978 93.7925C89.5794 95.2499 85.8083 96 82 96C78.1917 96 74.4206 95.2499 70.9022 93.7925C67.3837 92.3351 64.1868 90.199 61.4939 87.5061C58.801 84.8132 56.6649 81.6163 55.2075 78.0978C53.7501 74.5794 53 70.8083 53 67L82 67H111Z" fill="var(--fill-0, white)"/>
<circle id="Pupille links" cx="17.5" cy="78.5" r="11.5" fill="var(--fill-0, #292925)"/>
<circle id="Pupille rechts" cx="71.5" cy="78.5" r="11.5" fill="var(--fill-0, #292925)"/>
</g>
</g>
</svg>
