<svg preserveAspectRatio="xMidYMid meet" width="100%" height="100%" overflow="visible" style="display: block;" viewBox="0 0 111 103" fill="none" xmlns="http://www.w3.org/2000/svg">
<g id="figur">
<path id="Vector" d="M81.0006 9.15385C85.4643 8.62825 92.7843 9.16466 91.9796 15.3509C90.887 23.7509 81.6942 32.7102 76.2891 38.9754C80.6744 39.6085 86.4458 38.5401 88.6925 43.1547C88.7433 47.5039 83.9979 52.1134 81.1279 55.6125C86.8153 56.4111 96.6892 55.05 101.268 57.2618C115.221 64.0004 94.346 75.6647 89.5047 78.1056C73.2924 86.2791 57.282 95.0208 40.5491 101.606C38.7936 102.186 36.9916 102.608 35.1633 102.868C33.5634 103.099 30.5428 103.085 29.1987 102.352C13.7127 93.9142 35.9919 76.7343 42.3065 69.9639C37.7461 69.8125 32.4909 70.6219 30.2411 65.9736C30.4431 61.611 35.7636 56.9246 38.7377 52.6403C33.5979 52.2426 28.6255 52.1999 23.9466 50.0135C20.3515 48.3343 18.6794 43.6415 21.224 40.8589C32.6514 28.3642 65.9247 13.1588 81.0006 9.15385Z" fill="var(--fill-0, #FF88C8)"/>
<g id="Augen">
<circle id="Auge links" cx="29" cy="29" r="29" fill="var(--fill-0, white)"/>
<circle id="Auge rechts" cx="82" cy="29" r="29" fill="var(--fill-0, white)"/>
<circle id="Pupille links" cx="18.5" cy="43.5" r="11.5" fill="var(--fill-0, #292925)"/>
<circle id="Pupille rechts" cx="71.5" cy="43.5" r="11.5" fill="var(--fill-0, #292925)"/>
</g>
</g>
</svg>
