<svg width="48" height="31" viewBox="0 0 48 31" fill="none" xmlns="http://www.w3.org/2000/svg">
<path d="M28.3143 0C33.92 0.0163611 35.2255 4.06224 35.9467 8.85138C36.1218 8.61297 36.3055 8.37924 36.4976 8.15252C37.46 7.01659 39.7309 5.14206 41.2129 5.30567C48.5109 6.30604 46.7599 15.903 47.122 20.9586C47.9044 31.8762 43.0033 30.5229 34.4417 30.5626L21.1324 30.6047C15.8661 30.614 5.74538 32.0865 4.84439 24.9811C4.27679 20.5028 6.49717 18.0627 10.7672 17.3966C10.0335 12.4134 7.69377 5.42956 13.3154 1.95866C14.6651 1.11256 16.2982 0.855446 17.8396 1.24811C20.293 1.89555 21.4095 3.48025 22.623 5.52773C24.0049 2.57338 25.0371 0.750275 28.3143 0Z" fill="#292925"/>
<circle cx="30.0053" cy="19.3939" r="10.6116" fill="white"/>
<circle cx="10.6116" cy="19.3939" r="10.6116" fill="white"/>
<circle cx="30.0053" cy="26.7122" r="3.29327" fill="#292925"/>
<circle cx="10.6116" cy="26.7122" r="3.29327" fill="#292925"/>
</svg>
