<svg preserveAspectRatio="none" width="100%" height="100%" overflow="visible" style="display: block;" viewBox="0 0 26.9997 17.9997" fill="none" xmlns="http://www.w3.org/2000/svg">
<g id="FY70SZ">
<path id="Vector" d="M26.6677 7.63775C25.2026 12.2715 18.7743 15.979 13.4982 17.9997C11.276 17.1501 9.18764 16.1432 7.24975 14.9631C6.07897 14.2498 5.00434 13.4902 4.00265 12.64C1.97234 10.9043 0.402871 8.85804 0.0584762 6.48222C-0.164075 4.9469 0.244972 3.39086 1.3482 2.11294C2.02373 1.33039 2.95082 0.754399 4.05901 0.402461C4.65829 0.212084 5.2472 0.110096 5.89123 0.0485799C7.63973 -0.118162 9.3903 0.155748 10.8914 0.871927C11.9146 1.36017 12.8086 1.99185 13.4965 2.77829C14.6681 1.47641 16.4046 0.498944 18.3744 0.154129C19.713 -0.0802806 21.0703 -0.0469323 22.3803 0.251584C25.1359 0.879374 26.6702 2.84595 26.9565 5.0068C27.0742 5.89684 26.9424 6.76746 26.6673 7.63808L26.6677 7.63775Z" fill="var(--fill-0, #292925)"/>
</g>
</svg>
