<svg preserveAspectRatio="none" width="100%" height="100%" overflow="visible" style="display: block;" viewBox="0 0 25.9997 17.9997" fill="none" xmlns="http://www.w3.org/2000/svg">
<g id="FY70SZ">
<path id="Vector" d="M25.68 7.63775C24.2692 12.2715 18.079 15.979 12.9982 17.9997C10.8583 17.1501 8.84736 16.1432 6.98124 14.9631C5.85382 14.2498 4.81899 13.4902 3.8544 12.64C1.89929 10.9043 0.38795 8.85804 0.0563104 6.48222C-0.157998 4.9469 0.235899 3.39086 1.29826 2.11294C1.94877 1.33039 2.84153 0.754399 3.90868 0.402461C4.48576 0.212084 5.05286 0.110096 5.67304 0.0485799C7.35678 -0.118162 9.04251 0.155748 10.488 0.871927C11.4733 1.36017 12.3342 1.99185 12.9966 2.77829C14.1249 1.47641 15.797 0.498944 17.6939 0.154129C18.9829 -0.0802806 20.2899 -0.0469323 21.5514 0.251584C24.205 0.879374 25.6824 2.84595 25.9581 5.0068C26.0715 5.89684 25.9446 6.76746 25.6796 7.63808L25.68 7.63775Z" fill="var(--fill-0, #292925)"/>
</g>
</svg>
