<svg preserveAspectRatio="none" width="100%" height="100%" overflow="visible" style="display: block;" viewBox="0 0 44 49" fill="none" xmlns="http://www.w3.org/2000/svg">
<path id="Vector" d="M21.255 0.0306946C24.0578 -0.202954 26.3889 0.893808 27.7493 3.44074C28.0298 3.96604 28.3053 4.94323 28.5424 5.52841C29.1223 6.96005 30.5396 8.29944 31.9465 8.8888C35.3412 10.3107 37.6245 7.70372 41.0501 9.99854C42.5044 10.976 43.5115 12.497 43.8484 14.2245C44.226 16.1224 43.8637 17.8025 42.7048 19.3588C42.29 19.9157 41.84 20.3469 41.4481 20.9303C39.9846 23.1085 39.9408 26.0904 41.5334 28.2104C42.6282 29.6679 43.4988 30.2619 43.884 32.2592C44.2139 33.9699 43.8276 35.6814 42.8869 37.1392C41.6426 39.0675 39.3841 40.2381 37.0981 39.9779C35.5469 39.8012 34.7129 39.4585 33.1 39.7701C30.9904 40.1776 29.3619 41.5838 28.5148 43.5599C28.0952 44.5389 27.9246 45.4115 27.2885 46.3188C26.2108 47.8563 24.7997 48.6049 23.0173 48.9559C20.2157 49.2402 17.5624 48.1541 16.3034 45.5615C15.379 43.6578 15.3923 42.3495 13.4534 40.9031C12.2083 39.9742 10.723 39.496 9.15875 39.6521C8.55858 39.712 7.87218 39.884 7.25485 39.9684C5.60507 40.1917 3.93465 39.7471 2.6098 38.7323C1.25217 37.6836 0.282534 35.9883 0.0654622 34.2802C-0.149256 32.698 0.249515 31.0934 1.17895 29.7993C1.52915 29.3096 1.98541 28.8195 2.35835 28.3306C3.09914 27.3647 3.54041 26.2003 3.62689 24.983C3.90938 20.51 0.578344 20.1088 0.0498509 16.284C-0.45188 12.3023 2.90431 8.57919 6.93507 9.02721C9.53187 9.31587 10.883 9.81872 13.2093 8.24743C15.7491 6.53193 15.3618 4.58054 16.9642 2.30799C17.8833 1.00458 19.6958 0.227106 21.255 0.0306946ZM4.94338 15.5885C5.35597 16.6261 6.17655 17.1959 6.88904 18.3069C8.9213 21.5419 9.23569 25.5786 7.72914 29.093C7.41226 29.8337 7.01647 30.5376 6.54862 31.1922C5.72556 32.3214 3.8903 33.643 5.9505 34.9096C6.21521 35.0724 6.91592 34.9396 7.20163 34.8756C12.3734 33.7171 17.8368 36.3833 20.003 41.2713C20.6592 42.752 20.5375 44.3927 22.63 43.9103C22.7526 43.8424 22.9571 43.7257 23.029 43.6016C23.5823 42.6408 23.8081 41.5604 24.3476 40.5706C25.0726 39.2406 25.942 38.1815 27.0985 37.2168C29.5042 35.2101 32.7126 34.3056 35.8099 34.7029C37.0561 34.8628 38.4535 35.5601 38.9356 33.8073C39.0203 33.4967 39.0583 33.1966 38.866 32.9102C38.2884 32.1125 37.73 31.5741 37.1741 30.7167C35.4052 27.988 34.9192 24.6888 35.7247 21.5531C36.0744 20.1657 36.6852 18.8588 37.524 17.7031C38.3003 16.6505 39.5338 16.0349 38.6926 14.6271C38.5247 14.3447 38.2483 14.1447 37.9289 14.0745C37.3221 13.9393 35.6491 14.3849 34.8999 14.4037C30.8765 14.5047 27.134 12.6595 24.9107 9.30807C24.4701 8.64986 24.0985 7.94729 23.8023 7.21167C23.1515 5.59952 23.444 4.86932 21.3629 5.08525C20.5661 5.57563 20.3622 6.98313 19.8689 8.00031C18.647 10.5058 16.5551 12.4731 13.9893 13.5301C12.5079 14.1543 11.2355 14.3676 9.59327 14.4185C8.43654 14.4543 6.78199 13.7996 5.72674 14.1954C5.29953 14.3555 5.0508 15.1677 4.94338 15.5885Z" fill="var(--fill-0, #FF88C8)"/>
</svg>
