<svg preserveAspectRatio="none" width="100%" height="100%" overflow="visible" style="display: block;" viewBox="0 0 30 34" fill="none" xmlns="http://www.w3.org/2000/svg">
<g id="trash" clip-path="url(#clip0_trash)">
<path id="Vector" d="M4.71922 34C4.17705 33.7774 3.76959 33.6089 3.53495 33.0097C3.31768 32.4551 3.31241 31.6669 3.25669 31.0716L3.03128 28.715L2.56049 23.822L1.85041 16.473L1.61447 14.0161C1.51293 13.0548 1.39288 12.1028 1.34262 11.1361C1.27397 9.8158 2.15031 9.29108 3.32706 9.28101C4.5829 9.27022 5.83701 9.27848 7.09115 9.27845L14.6073 9.27795L22.5958 9.27824C23.9493 9.2778 25.3037 9.27319 26.656 9.27934C27.489 9.28312 28.277 9.42286 28.6235 10.302C28.7335 10.5809 28.7794 10.8564 28.7625 11.1578C28.7118 12.0715 28.5923 12.9931 28.4957 13.9037L28.1411 17.5457L27.0866 28.9783L26.8521 31.3341C26.7301 32.4596 26.7747 33.4802 25.5312 33.964L25.508 33.9729C25.4836 33.9825 25.4798 33.9845 25.4582 34H4.71922ZM15.1826 28.1661L15.6141 28.1053C15.8341 27.9438 16.1673 27.6028 16.1965 27.3306C16.2515 26.8162 16.2345 26.2265 16.2343 25.7072L16.233 22.7783L16.2336 18.4225C16.2336 17.6436 16.246 16.8607 16.2143 16.0828C16.2087 15.947 16.1976 15.9123 16.1296 15.7982C15.7307 15.129 15.2636 15.1014 14.5756 15.1361C14.2706 15.2524 13.7244 15.5824 13.6729 15.8764C13.5351 16.6624 13.5868 18.0654 13.5867 18.827L13.5872 22.8452L13.5922 26.0967C13.5951 26.5085 13.5505 26.8738 13.6181 27.2812C13.7309 27.9609 14.5699 28.3129 15.1826 28.1661ZM9.17668 28.176C9.33239 28.1516 9.51875 28.117 9.67358 28.1082C10.5702 27.4327 10.3699 27.034 10.3197 26.0087C10.2218 24.0101 10.0616 21.9993 9.97094 20.0021L9.85138 17.734C9.82551 17.1895 9.81907 16.6412 9.76745 16.1009C9.7194 15.5979 9.17574 15.2146 8.71487 15.142C8.50461 15.1089 8.33747 15.1283 8.12729 15.148C7.72141 15.2713 7.44034 15.5049 7.22644 15.8711C7.10076 16.0864 7.14626 16.2755 7.1382 16.5153C7.15496 17.0598 7.226 17.6055 7.2507 18.1533L7.59292 24.4453L7.69203 26.3747C7.72543 27.0461 7.63185 27.6967 8.35273 28.0508C8.59789 28.1712 8.90439 28.2097 9.17668 28.176ZM21.3384 28.1659C21.7289 28.1115 21.9159 28.0695 22.1946 27.7289C22.3587 27.5283 22.3985 27.3392 22.4258 27.0867C22.4964 26.4344 22.501 25.7677 22.5375 25.1122L22.7679 20.9405L22.9323 18.0532C22.973 17.4003 23.0208 16.653 23.0029 15.9978C22.9989 15.8534 22.6853 15.5055 22.5506 15.4124C22.1532 15.1376 21.8737 15.0943 21.4207 15.141C21.127 15.1592 20.8953 15.2963 20.7015 15.5185C20.5435 15.6997 20.4284 15.9319 20.3908 16.1717C20.324 16.9649 20.3086 17.785 20.2699 18.579L20.0293 22.8545C19.9546 24.2561 19.8772 25.6826 19.7827 27.0844C19.7678 27.3062 20.0144 27.7808 20.1953 27.8978C20.5484 28.1729 20.9137 28.2063 21.3384 28.1659Z" fill="#B20000"/>
<path id="Vector_2" d="M11.9338 0H18.0964C18.2041 0.0495719 18.3136 0.0922871 18.4218 0.140647C19.4151 0.584732 19.6079 1.56538 19.4773 2.56056C20.2402 2.52859 21.0624 2.54324 21.8321 2.54369L25.5882 2.54724L27.4921 2.54524C28.1407 2.54095 28.957 2.42809 29.4598 2.89405C29.8096 3.21811 29.9241 3.57511 29.9235 4.04668C29.9317 4.75254 29.9218 5.45418 29.9221 6.15923C29.9221 6.65288 30.0079 7.14309 29.5377 7.45257L29.521 7.46383C29.2641 7.63137 27.482 7.5773 27.0371 7.5771L23.2611 7.57484L6.5463 7.57499L2.48344 7.57573C2.12677 7.57585 1.76719 7.57638 1.41073 7.57727C0.951911 7.5784 0.690334 7.6149 0.267183 7.40088C0.144349 7.22628 0.0874743 7.08591 0 6.89163V3.87526C0.112124 3.49805 0.126278 3.17309 0.445137 2.88251C0.937406 2.43391 1.77764 2.54064 2.38683 2.54287L4.48567 2.54497L8.33373 2.54395C9.06905 2.54358 9.8661 2.52882 10.5969 2.55539C10.5292 1.65412 10.5736 0.639149 11.48 0.171693C11.6216 0.098625 11.7817 0.0895879 11.9338 0Z" fill="#B20000"/>
</g>
<defs>
<clipPath id="clip0_trash">
<rect width="30" height="34" fill="white"/>
</clipPath>
</defs>
</svg>
