<svg preserveAspectRatio="none" width="100%" height="100%" overflow="visible" style="display: block;" viewBox="0 0 37 37" fill="none" xmlns="http://www.w3.org/2000/svg">
<g id="plus_circle" clip-path="url(#clip0_plus)">
<path id="Vector" d="M17.4747 0H19.5077C19.7368 0.0749125 20.1421 0.0655717 20.3879 0.0923692C21.3498 0.1972 22.3068 0.36471 23.2415 0.616718C28.1608 1.92637 32.3257 5.20054 34.7596 9.67171C35.7547 11.5041 36.4325 13.4917 36.7641 15.5504C36.8248 15.9236 36.8725 16.2988 36.9071 16.6754C36.9281 16.9018 36.9382 17.3304 37 17.5336V19.4828C36.9118 19.7534 36.8947 20.4882 36.8555 20.8125C36.7545 21.6105 36.6025 22.4013 36.4006 23.1797C35.0987 28.127 31.8133 32.3179 27.3198 34.7632C25.7444 35.6186 24.0538 36.2423 22.3003 36.6148C21.6233 36.7613 20.9464 36.8618 20.257 36.9153C20.0913 36.9281 19.6973 36.9427 19.5562 37H17.4767C17.3193 36.9442 16.8786 36.9277 16.6936 36.9109C16.3069 36.8788 15.9217 36.8302 15.5391 36.7653C13.5939 36.4517 11.7117 35.8277 9.96458 34.9169C5.36448 32.521 1.97871 28.3073 0.629591 23.2993C0.325987 22.1921 0.13717 21.0423 0.0608148 19.8987C0.0534104 19.7878 0.0384771 19.6434 0 19.5415V17.4435C0.0564324 17.3201 0.107237 16.499 0.132176 16.2909C0.174267 15.9293 0.228285 15.5692 0.294141 15.2112C0.631864 13.3244 1.26286 11.5021 2.16421 9.81053C4.5773 5.26959 8.77279 1.93896 13.7427 0.618816C14.5136 0.413376 15.2972 0.258832 16.0884 0.156184C16.2864 0.130912 16.4872 0.110144 16.6843 0.0864931C16.9022 0.0603472 17.2753 0.0702445 17.4747 0ZM16.2973 16.6008C15.5867 16.6163 14.8541 16.6066 14.1409 16.6062L10.4715 16.605L9.08334 16.6052C8.72636 16.6054 8.24784 16.5944 7.90422 16.6655C7.43221 16.7594 7.00115 16.998 6.67095 17.3481C6.21954 17.823 5.9783 18.4595 6.00164 19.1144C6.0222 19.7659 6.30521 20.3816 6.78641 20.8214C7.10709 21.12 7.50451 21.3234 7.93426 21.4091C8.33528 21.4875 8.83337 21.4705 9.24995 21.4701L10.6967 21.4696L16.3033 21.4723C16.2743 23.2383 16.3023 25.0951 16.3022 26.8694L16.3017 28.5082C16.3016 28.9035 16.2859 29.4331 16.3566 29.8088C16.4453 30.2717 16.6678 30.6983 16.9966 31.0357C17.4617 31.515 18.2017 31.8334 18.8749 31.7654C19.5701 31.7141 20.1468 31.4422 20.6037 30.9069C20.8748 30.5886 21.0566 30.2041 21.1306 29.7928C21.1966 29.4285 21.1841 28.9693 21.1843 28.5939L21.1838 27.1553L21.1825 23.545C21.1823 22.861 21.1736 22.153 21.1872 21.4705L26.7285 21.4694L28.2297 21.4701C29.2506 21.4703 30.002 21.5184 30.7841 20.7354C31.2375 20.2841 31.4905 19.6694 31.4865 19.0297C31.4885 18.3818 31.2305 17.7604 30.77 17.3047C30.435 16.97 30.0078 16.743 29.5431 16.6527C29.2076 16.5863 28.7066 16.6051 28.3523 16.605L26.7495 16.6052C24.9318 16.6059 23.1122 16.6077 21.2943 16.6047C21.2512 16.6047 21.2232 16.6096 21.1814 16.6175C21.2018 14.7844 21.1865 12.9212 21.1865 11.0866L21.1868 9.54602C21.1872 9.14624 21.2036 8.60161 21.1241 8.21958C21.0306 7.76299 20.8056 7.34361 20.4774 7.01278C20.0246 6.54999 19.4037 6.29029 18.7562 6.29291C18.721 6.29284 18.6857 6.29336 18.6505 6.2945C17.9026 6.37184 17.3475 6.5765 16.8542 7.18358C16.5942 7.50079 16.4214 7.88026 16.3527 8.28459C16.2881 8.67041 16.3014 9.09965 16.3017 9.49265L16.3023 10.8904C16.3025 12.7666 16.333 14.7339 16.2973 16.6008Z" fill="#007415"/>
</g>
<defs>
<clipPath id="clip0_plus">
<rect width="37" height="37" fill="white"/>
</clipPath>
</defs>
</svg>
