<svg preserveAspectRatio="none" width="100%" height="100%" overflow="visible" style="display: block;" viewBox="0 0 52 53.4219" fill="none" xmlns="http://www.w3.org/2000/svg">
<g id="back_chevron">
<path id="Vector" d="M26.7431 7.07507C38.1316 6.73306 47.6392 15.6918 47.9741 27.0805C48.3091 38.4693 39.3445 47.9713 27.9556 48.2993C16.5766 48.6269 7.08463 39.6718 6.74998 28.293C6.41528 16.9142 15.3645 7.41678 26.7431 7.07507ZM28.2072 44.116C37.2805 43.6494 44.2588 35.9179 43.7963 26.8445C43.3338 17.771 35.6054 10.7892 26.5317 11.2477C17.4523 11.7064 10.4651 19.4408 10.928 28.5199C11.3908 37.5992 19.1282 44.5829 28.2072 44.116Z" fill="#292925"/>
<path id="Vector_2" d="M23.6581 18.6487C24.2942 18.5933 24.8584 18.6065 25.3945 19.0186C26.537 19.8239 27.4207 20.8526 28.4345 21.7763C29.5219 22.7671 30.564 23.5692 31.5829 24.6745C32.5437 25.5585 34.2554 26.4902 33.871 28.0908C33.5936 29.2464 31.7488 30.5486 30.8618 31.378L27.4681 34.5114C27.0308 34.9193 25.8635 36.0752 25.4216 36.3534C24.466 36.9591 23.5278 36.9902 22.6839 36.1539C22.3037 35.7791 22.0935 35.2652 22.102 34.7314C22.1029 34.3332 22.2198 33.9438 22.4383 33.6109C22.9188 32.8919 24.6488 31.4113 25.3253 30.807C26.4641 29.7891 27.5833 28.7496 28.6824 27.6889C28.1918 27.2113 27.6977 26.6533 27.1979 26.1946L24.1534 23.4375C23.0445 22.44 21.4704 21.4932 22.3121 19.7354C22.5861 19.1631 23.0719 18.8447 23.6581 18.6487Z" fill="#292925"/>
</g>
</svg>
