<svg preserveAspectRatio="none" width="100%" height="100%" overflow="visible" style="display: block;" viewBox="0 0 44.3126 49.0554" fill="none" xmlns="http://www.w3.org/2000/svg">
<path id="Vector" d="M21.5762 0.0326512C21.6667 0.0208649 21.7587 0.0162794 21.8498 0.0109474C22.9946 -0.0560534 24.2265 0.185239 25.2452 0.714273C28.7947 2.5576 27.7646 5.39888 30.147 7.51357C31.6325 8.8322 33.3383 9.64277 35.3718 9.37191C36.1033 9.27446 36.7962 9.05265 37.539 9.01004C39.1133 8.9198 40.7959 9.43823 41.9756 10.4986C44.2206 12.5166 45.0481 15.7855 43.5684 18.5056C43.1674 19.2425 42.6066 19.8017 42.0864 20.4467C40.9658 21.8359 40.4943 23.5681 40.6733 25.3374C40.8098 26.6868 41.5012 27.9048 42.3637 28.9277C42.6172 29.2282 42.9184 29.4926 43.148 29.8129C43.7481 30.6497 44.2302 31.8645 44.2818 32.9002C44.3704 34.678 43.9021 36.4924 42.6763 37.8346C41.1353 39.5222 39.2199 40.2258 36.9569 39.9349C36.1084 39.8258 35.2483 39.605 34.389 39.6461C32.0224 39.759 29.7865 41.1304 28.7974 43.3242C28.1763 44.7016 28.0983 45.7292 26.9944 46.9348C26.0402 47.9769 24.389 48.9458 22.9511 49.0053C20.0911 49.3714 17.1369 47.7052 16.146 44.9557C15.5054 43.178 15.0543 42.0414 13.4796 40.8562C12.284 39.9678 10.8072 39.5421 9.32215 39.6576C8.8283 39.6985 8.22792 39.8431 7.72259 39.9057C5.76995 40.1471 4.2552 39.9686 2.66437 38.7592C1.24052 37.6555 0.305461 36.0382 0.0593698 34.2536C-0.26526 31.8414 0.779113 30.1525 2.27112 28.4623C3.38668 27.1986 3.45849 26.3166 3.63622 24.7579C4.07274 20.9293 0.51861 19.8246 0.064179 16.3912C-0.177479 14.7259 0.360274 12.7907 1.37605 11.4696C2.77 9.65674 5.05393 8.74395 7.31406 9.05859C8.49147 9.22251 9.29366 9.54101 10.5442 9.35667C12.6119 9.05199 14.6716 7.54048 15.527 5.62664C16.01 4.51138 16.2355 3.35844 17.0204 2.38875C18.2838 0.828053 19.6762 0.291956 21.5762 0.0326512Z" fill="var(--fill-0, #FF88C8)"/>
</svg>
