<svg preserveAspectRatio="none" width="100%" height="100%" overflow="visible" style="display: block;" viewBox="0 0 20 20" fill="none" xmlns="http://www.w3.org/2000/svg">
<g id="Search_icon.svg 1 [Vectorized]" clip-path="url(#clip0_0_650)">
<g id="Vector">
<path d="M7.5791 0C7.63753 0.0413257 7.97729 0.0580348 8.08105 0.0751953C8.42326 0.131909 8.72842 0.197104 9.05859 0.303711C11.3954 1.0334 13.1805 2.93172 13.7666 5.30859C14.2037 7.106 13.9122 9.00359 12.9541 10.5859C12.7661 10.899 12.5961 11.1226 12.3682 11.4082C13.0696 12.0769 13.897 12.9113 14.5723 13.6094C14.6733 13.4649 14.9404 13.2022 15.0723 13.0664C15.4685 13.4057 16.0499 14.0258 16.4434 14.4199L18.7744 16.7529C19.1606 17.1392 19.6045 17.6055 20 17.9736V18.1982L18.1963 20H17.8135C16.7306 18.8661 15.5229 17.6993 14.4062 16.583L13.5176 15.6963C13.3672 15.5466 13.13 15.3242 12.998 15.165C13.1416 14.9905 13.3442 14.8057 13.5127 14.6514C13.2594 14.3654 12.9448 14.0637 12.6709 13.79L11.3096 12.4307C10.8581 12.9074 9.62453 13.4727 8.99414 13.6572C7.18418 14.198 5.23253 13.9878 3.5791 13.0742C1.95642 12.174 0.759151 10.6642 0.25293 8.87891C0.143947 8.50734 0.0745793 8.12572 0.0322266 7.74121C0.027145 7.69519 0.0184362 7.64979 0.00488281 7.60547L0 7.59082V6.36914C0.036849 6.31649 0.0367844 6.12642 0.0458984 6.05176C0.407993 3.11082 2.73201 0.648922 5.64453 0.108398C5.77067 0.0851254 6.30744 0.0407057 6.36719 0H7.5791ZM6.84668 1.4668C3.8163 1.53651 1.41285 4.04456 1.47168 7.0752C1.53069 10.1058 4.02974 12.5178 7.06055 12.4697C10.1067 12.4214 12.5337 9.90725 12.4746 6.86133C12.4155 3.81537 9.8924 1.39688 6.84668 1.4668Z" fill="var(--fill-0, white)"/>
<path d="M7.5791 0C7.63753 0.0413257 7.97729 0.0580348 8.08105 0.0751953C8.42326 0.131909 8.72842 0.197104 9.05859 0.303711C11.3954 1.0334 13.1805 2.93172 13.7666 5.30859C14.2037 7.106 13.9122 9.00359 12.9541 10.5859C12.7661 10.899 12.5961 11.1226 12.3682 11.4082C13.0696 12.0769 13.897 12.9113 14.5723 13.6094C14.6733 13.4649 14.9404 13.2022 15.0723 13.0664C15.4685 13.4057 16.0499 14.0258 16.4434 14.4199L18.7744 16.7529C19.1606 17.1392 19.6045 17.6055 20 17.9736V18.1982L18.1963 20H17.8135C16.7306 18.8661 15.5229 17.6993 14.4062 16.583L13.5176 15.6963C13.3672 15.5466 13.13 15.3242 12.998 15.165C13.1416 14.9905 13.3442 14.8057 13.5127 14.6514C13.2594 14.3654 12.9448 14.0637 12.6709 13.79L11.3096 12.4307C10.8581 12.9074 9.62453 13.4727 8.99414 13.6572C7.18418 14.198 5.23253 13.9878 3.5791 13.0742C1.95642 12.174 0.759151 10.6642 0.25293 8.87891C0.143947 8.50734 0.0745793 8.12572 0.0322266 7.74121C0.027145 7.69519 0.0184362 7.64979 0.00488281 7.60547L0 7.59082V6.36914C0.036849 6.31649 0.0367844 6.12642 0.0458984 6.05176C0.407993 3.11082 2.73201 0.648922 5.64453 0.108398C5.77067 0.0851254 6.30744 0.0407057 6.36719 0H7.5791ZM6.84668 1.4668C3.8163 1.53651 1.41285 4.04456 1.47168 7.0752C1.53069 10.1058 4.02974 12.5178 7.06055 12.4697C10.1067 12.4214 12.5337 9.90725 12.4746 6.86133C12.4155 3.81537 9.8924 1.39688 6.84668 1.4668Z" stroke="var(--stroke-0, white)"/>
</g>
</g>
<defs>
<clipPath id="clip0_0_650">
<rect width="20" height="20" fill="white"/>
</clipPath>
</defs>
</svg>
