<svg preserveAspectRatio="none" width="100%" height="100%" overflow="visible" style="display: block;" viewBox="0 0 27.1993 27.8793" fill="none" xmlns="http://www.w3.org/2000/svg">
<g id="edit_pencil">
<path id="Vector" d="M21.9486 3.71432C22.3979 3.66073 22.9875 3.78503 23.3617 4.02249C23.8083 4.3059 24.948 5.44772 25.2176 5.84662C25.3553 6.05272 25.4562 6.28147 25.5159 6.52257C25.6758 7.15935 25.5941 7.81697 25.2549 8.38069C25.055 8.71269 24.6041 9.12867 24.322 9.41205L23.2417 10.5L19.4811 14.2855L17.3095 16.4643C15.828 17.9581 16.0737 17.8245 13.9829 18.3373C13.4881 18.4544 12.9993 18.6033 12.4976 18.6897C12.0434 18.765 11.6192 18.6618 11.2541 18.3812C10.6138 17.8889 10.5741 17.2186 10.7647 16.4957C10.9301 15.8512 11.095 15.2062 11.2476 14.5585C11.3598 14.0824 11.4646 13.5801 11.7717 13.1865C11.9835 12.915 12.2357 12.6767 12.4782 12.4331L13.5163 11.3924L16.707 8.17469L19.4811 5.38394C20.3039 4.56383 20.7301 3.8667 21.9486 3.71432ZM12.203 17.1814C12.442 17.0788 13.6993 16.7481 13.976 16.7058C15.1732 16.3687 14.96 16.5751 15.8677 15.6526L16.8583 14.6502C18.4091 13.0924 20.0116 11.4193 21.596 9.90968C21.0457 9.43389 20.4498 8.73811 19.9124 8.22988C19.8151 8.1379 19.4636 7.7485 19.3901 7.69711C18.8586 8.29968 18.1494 8.97978 17.5764 9.55675L14.5145 12.6436C14.058 13.1051 13.3419 13.7422 12.9815 14.2654C12.9074 14.3729 12.7861 14.9233 12.7482 15.0808L12.4413 16.3244C12.3761 16.5856 12.2987 16.9349 12.203 17.1814ZM20.5038 6.57477L21.8254 7.89985C22.0452 8.12003 22.3566 8.45154 22.5809 8.65239C22.6244 8.70422 22.672 8.76568 22.722 8.80973C22.8937 8.59982 23.0757 8.39865 23.2672 8.20701C23.9036 7.57069 24.4969 7.189 23.5463 6.32376C23.1678 5.97937 22.6906 5.29453 22.1687 5.2627C22.0958 5.26805 21.9458 5.27861 21.885 5.31353C21.3795 5.60381 20.972 6.20495 20.5038 6.57477Z" fill="#292925"/>
<path id="Vector_2" d="M8.86648 5.23762C8.9561 5.223 9.20791 5.22106 9.30788 5.22049L14.436 5.22238L15.8974 5.22111C16.302 5.21899 16.9823 5.15082 17.217 5.45047C17.8347 6.23892 17.1528 6.90152 16.2892 6.7849C16.1032 6.75979 15.5823 6.78171 15.4059 6.78149L11.2046 6.78284C10.5729 6.78232 9.93868 6.77923 9.30769 6.78222C8.60178 6.78556 8.04226 6.9616 7.53367 7.46688C6.87752 8.11878 6.83621 8.78651 6.83326 9.65911L6.83604 17.1358L6.83689 19.1954C6.83726 19.566 6.8309 19.9458 6.85412 20.3117C6.90504 21.1136 7.37081 21.7977 8.0632 22.1838C8.65798 22.5154 9.20915 22.4791 9.86805 22.4796L17.1736 22.4802L19.1517 22.4801C20.1682 22.4797 20.9371 22.5536 21.7211 21.7822C22.5942 20.9231 22.4187 19.7498 22.4184 18.6243L22.4164 16.0195L22.4175 13.8257C22.4178 13.4561 22.3596 12.5751 22.5613 12.2971C22.6864 12.1277 22.8733 12.0155 23.0807 11.9852C23.2861 11.9537 23.4953 12.0098 23.658 12.14C23.9288 12.3531 23.9639 12.6254 23.9668 12.9499C23.9695 13.2559 23.9683 13.5618 23.9673 13.8679L23.9612 15.9503L23.9671 18.7736C23.9677 19.4156 23.9958 20.2679 23.8787 20.8791C23.7613 21.4929 23.4974 22.0686 23.1098 22.5566C22.4683 23.3591 21.5387 23.8747 20.5224 23.992C19.9295 24.0574 18.8693 24.0287 18.2499 24.0289L14.2343 24.029L10.6824 24.0285C10.094 24.0283 9.08737 24.0589 8.54808 23.97C7.88831 23.86 7.26772 23.581 6.74601 23.1597C5.93395 22.5074 5.41639 21.5538 5.30978 20.5134C5.25434 19.9727 5.2857 18.9645 5.28592 18.3832L5.28583 14.4397L5.28568 10.6891C5.28578 10.0944 5.25621 9.02083 5.34578 8.48053C5.45877 7.81611 5.7399 7.19226 6.16205 6.66913C6.85351 5.81437 7.78736 5.35105 8.86648 5.23762Z" fill="#292925"/>
</g>
</svg>
