<svg width="339" height="176" viewBox="0 0 339 176" fill="none" xmlns="http://www.w3.org/2000/svg">
<g clip-path="url(#clip0_959_5365)">
<path d="M170.35 134.436C169.742 134.436 169.208 134.57 168.749 134.838C168.296 135.107 167.944 135.482 167.694 135.965C167.444 136.454 167.318 137.027 167.318 137.682C167.318 138.177 167.39 138.622 167.533 139.015C167.676 139.415 167.879 139.754 168.141 140.035C168.409 140.321 168.728 140.538 169.098 140.688C169.474 140.843 169.891 140.92 170.35 140.92C170.964 140.92 171.498 140.786 171.951 140.518C172.404 140.255 172.756 139.883 173.006 139.4C173.257 138.917 173.382 138.347 173.382 137.691C173.382 137.197 173.311 136.749 173.167 136.35C173.024 135.95 172.819 135.608 172.55 135.321C172.288 135.035 171.969 134.815 171.593 134.66C171.224 134.51 170.809 134.436 170.35 134.436ZM170.35 135.42C170.738 135.42 171.066 135.509 171.334 135.688C171.608 135.867 171.817 136.126 171.96 136.466C172.109 136.806 172.184 137.211 172.184 137.682C172.184 138.398 172.023 138.952 171.701 139.346C171.385 139.74 170.935 139.936 170.35 139.936C169.969 139.936 169.641 139.847 169.366 139.668C169.092 139.495 168.88 139.239 168.731 138.899C168.588 138.565 168.517 138.159 168.517 137.682C168.517 136.973 168.678 136.418 169 136.019C169.322 135.619 169.772 135.42 170.35 135.42ZM177.578 134.436C176.88 134.436 176.29 134.567 175.807 134.829C175.33 135.092 174.967 135.464 174.716 135.947C174.466 136.43 174.34 137.003 174.34 137.665C174.34 138.165 174.412 138.616 174.555 139.015C174.704 139.415 174.916 139.754 175.19 140.035C175.47 140.321 175.81 140.538 176.21 140.688C176.609 140.843 177.062 140.92 177.569 140.92C177.903 140.92 178.237 140.878 178.571 140.795C178.911 140.717 179.23 140.583 179.528 140.392C179.629 140.327 179.695 140.246 179.725 140.151C179.76 140.056 179.766 139.957 179.742 139.856C179.719 139.76 179.674 139.677 179.608 139.605C179.543 139.534 179.459 139.489 179.358 139.471C179.262 139.453 179.155 139.477 179.036 139.543C178.809 139.674 178.58 139.769 178.347 139.829C178.115 139.889 177.855 139.918 177.569 139.918C177.128 139.918 176.755 139.829 176.451 139.65C176.147 139.477 175.918 139.224 175.763 138.89C175.613 138.556 175.539 138.148 175.539 137.665C175.539 136.931 175.715 136.374 176.067 135.992C176.418 135.611 176.94 135.42 177.632 135.42C177.87 135.42 178.112 135.444 178.356 135.491C178.601 135.539 178.839 135.605 179.072 135.688L178.848 135.178V137.083H177.864C177.715 137.083 177.599 137.122 177.515 137.2C177.438 137.277 177.399 137.381 177.399 137.513C177.399 137.65 177.438 137.754 177.515 137.826C177.599 137.897 177.715 137.933 177.864 137.933H179.34C179.489 137.933 179.602 137.891 179.68 137.808C179.763 137.73 179.805 137.617 179.805 137.468V135.295C179.805 135.163 179.778 135.053 179.725 134.964C179.677 134.874 179.596 134.809 179.483 134.767C179.221 134.671 178.92 134.591 178.58 134.525C178.24 134.466 177.906 134.436 177.578 134.436Z" fill="#292925"/>
<path d="M60.9121 98.0615L67.2472 98.0615" stroke="#292925" stroke-width="2.23591" stroke-linecap="round" stroke-linejoin="round"/>
<path d="M74.7002 98.0615L81.0353 98.0615" stroke="#292925" stroke-width="2.23591" stroke-linecap="round" stroke-linejoin="round"/>
<path d="M88.4883 98.0615L94.8234 98.0615" stroke="#292925" stroke-width="2.23591" stroke-linecap="round" stroke-linejoin="round"/>
<path d="M101.904 98.0615L108.239 98.0615" stroke="#292925" stroke-width="2.23591" stroke-linecap="round" stroke-linejoin="round"/>
<g clip-path="url(#clip1_959_5365)">
<path d="M144.828 106.541V108.387C144.828 108.829 144.475 109.187 144.032 109.187L119.325 109.196C118.883 109.196 118.525 108.838 118.525 108.396V106.108C118.52 105.665 118.157 105.308 117.72 105.308H89.5282" stroke="#292925" stroke-width="2.23591" stroke-linecap="round" stroke-linejoin="round"/>
<path d="M144.759 106.697V108.465C144.759 108.889 144.406 109.232 143.965 109.232L119.324 109.241C118.882 109.241 118.526 108.898 118.526 108.474V106.282C118.521 105.858 118.159 105.515 117.723 105.515L89.9789 105.328" stroke="#292925" stroke-width="2.23591" stroke-linecap="round" stroke-linejoin="round"/>
<path d="M154.387 98.5135V79.2251H178.297M180.533 70.9015H145.586C145.143 70.9015 144.785 71.2593 144.785 71.7019L144.818 98.8101H147.055" stroke="#292925" stroke-width="2.23591" stroke-linecap="round" stroke-linejoin="round"/>
<path d="M173.453 130.482H154.82V106.633" stroke="#292925" stroke-width="2.23591" stroke-linecap="round" stroke-linejoin="round"/>
<path d="M145.454 98.8101H154.387" stroke="#292925" stroke-width="2.23591" stroke-linecap="round" stroke-linejoin="round"/>
<path d="M144.759 106.446H154.634" stroke="#292925" stroke-width="2.23591" stroke-linecap="round" stroke-linejoin="round"/>
<path d="M192.085 106.633H201.402" stroke="#292925" stroke-width="2.23591" stroke-linecap="round" stroke-linejoin="round"/>
<path d="M122.395 94.1398H118.539V97.5024V73.2885" stroke="#292925" stroke-width="2.23591" stroke-linecap="round" stroke-linejoin="round"/>
<path d="M131.276 79.442L131.262 94.1401H129.458" stroke="#292925" stroke-width="2.23591" stroke-linecap="round" stroke-linejoin="round"/>
<path d="M159.292 58.5605L159.246 34.2647" stroke="#292925" stroke-width="2.23591" stroke-linecap="round" stroke-linejoin="round"/>
<path d="M130.946 73.1333V70.7793H117.333" stroke="#292925" stroke-width="2.23591" stroke-linecap="round" stroke-linejoin="round"/>
<path d="M118.539 85.3408L130.518 85.3314" stroke="#292925" stroke-width="2.23591" stroke-linecap="round" stroke-linejoin="round"/>
<path d="M20.4411 95.2665H30.7272M20.4411 105.316H24.9512" stroke="#292925" stroke-width="2.23591" stroke-linecap="round" stroke-linejoin="round"/>
<path d="M50.478 105.307L52.8186 105.307" stroke="#292925" stroke-width="2.23591" stroke-linecap="round" stroke-linejoin="round"/>
<path d="M31.2598 97.1799V91.5652M90.7241 105.312H51.3118C50.8692 105.312 50.5113 105.67 50.5113 106.112L50.5207 114.841C50.5207 115.283 50.1582 115.641 49.7155 115.641L21.0109 115.486C20.573 115.486 20.2151 115.128 20.2151 114.685V76.2829C20.2151 75.8403 20.573 75.4826 21.0156 75.4826H30.306C30.7486 75.4826 31.1065 75.8403 31.1065 76.2829L31.2598 85.7641" stroke="#292925" stroke-width="2.23591" stroke-linecap="round" stroke-linejoin="round"/>
<path d="M49.772 97.9253L49.7626 78.4015" stroke="#292925" stroke-width="2.23591" stroke-linecap="round" stroke-linejoin="round"/>
<path d="M42.8385 99.1797H39.112V94.8942H42.4659V83.5283" stroke="#292925" stroke-width="2.23591" stroke-linecap="round" stroke-linejoin="round"/>
<path d="M39.1119 82.4101L48.9904 82.4101" stroke="#292925" stroke-width="2.23591" stroke-linecap="round" stroke-linejoin="round"/>
<path d="M28.8641 75.487H48.9009C49.3388 75.487 49.6967 75.8401 49.7014 76.2826L49.7202 78.5471C49.7202 78.985 50.0828 79.3428 50.5207 79.3428L117.691 79.2627C118.134 79.2627 118.492 78.9049 118.492 78.4624V71.7112C118.492 71.2687 118.134 70.9109 117.691 70.9109H117.545C117.103 70.9109 116.745 70.5531 116.745 70.1105L116.717 35.0742C116.717 34.6317 117.074 34.2739 117.517 34.2739H179.415" stroke="#292925" stroke-width="2.23591" stroke-linecap="round" stroke-linejoin="round"/>
<path d="M40.6024 106.26L40.6029 114.831" stroke="#292925" stroke-width="2.23591" stroke-linecap="round" stroke-linejoin="round"/>
<path d="M31.0999 104.024L31.0998 114.831" stroke="#292925" stroke-width="2.23591" stroke-linecap="round" stroke-linejoin="round"/>
<path opacity="0.5" d="M141.032 104.363V99.9252H125.753V104.397L141.032 104.363Z" fill="#292925" stroke="#292925" stroke-width="0.745303" stroke-linecap="round" stroke-linejoin="round"/>
<path d="M201.402 106.697V108.465C201.402 108.889 201.756 109.232 202.201 109.232L227.008 109.241C227.453 109.241 227.812 108.898 227.812 108.474V106.282C227.817 105.858 228.181 105.515 228.62 105.515H256.927" stroke="#292925" stroke-width="2.23591" stroke-linecap="round" stroke-linejoin="round"/>
<path d="M192.142 98.5985V79.2207H178.317M178.317 70.8971H200.942C201.385 70.8971 201.743 71.2549 201.743 71.6975L201.71 98.8057H199.473" stroke="#292925" stroke-width="2.23591" stroke-linecap="round" stroke-linejoin="round"/>
<path d="M173.08 130.482H192.085V106.633" stroke="#292925" stroke-width="2.23591" stroke-linecap="round" stroke-linejoin="round"/>
<path d="M201.079 98.8057H192.142" stroke="#292925" stroke-width="2.23591" stroke-linecap="round" stroke-linejoin="round"/>
<path d="M224.133 94.1354H227.994V98.248V73.284" stroke="#292925" stroke-width="2.23591" stroke-linecap="round" stroke-linejoin="round"/>
<path d="M215.257 79.4324L215.271 94.1353H217.07" stroke="#292925" stroke-width="2.23591" stroke-linecap="round" stroke-linejoin="round"/>
<path d="M187.241 58.5605L187.287 34.26" stroke="#292925" stroke-width="2.23591" stroke-linecap="round" stroke-linejoin="round"/>
<path d="M241.275 98.0615V79.429" stroke="#292925" stroke-width="2.23591" stroke-linecap="round" stroke-linejoin="round"/>
<path d="M131.343 61.542L131.343 34.3384" stroke="#292925" stroke-width="2.23591" stroke-linecap="round" stroke-linejoin="round"/>
<path d="M151.094 58.5605L131.716 58.5605" stroke="#292925" stroke-width="2.23591" stroke-linecap="round" stroke-linejoin="round"/>
<path d="M168.049 58.5605L159.478 58.5605M222.27 58.5605L195.812 58.5605M187.055 58.5605L180.533 58.5605M168.049 50.9212L159.478 50.9212M187.055 50.9212L175.316 50.9212L175.316 58.3742" stroke="#292925" stroke-width="2.23591" stroke-linecap="round" stroke-linejoin="round"/>
<path d="M215.562 58.5371L215.562 61.5416" stroke="#292925" stroke-width="2.23591" stroke-linecap="round" stroke-linejoin="round"/>
<path d="M255.063 98.0615V79.429" stroke="#292925" stroke-width="2.23591" stroke-linecap="round" stroke-linejoin="round"/>
<path d="M268.479 98.0615V79.429" stroke="#292925" stroke-width="2.23591" stroke-linecap="round" stroke-linejoin="round"/>
<path d="M281.894 98.0615V79.429" stroke="#292925" stroke-width="2.23591" stroke-linecap="round" stroke-linejoin="round"/>
<path d="M63.8933 97.3159V79.8013" stroke="#292925" stroke-width="2.23591" stroke-linecap="round" stroke-linejoin="round"/>
<path d="M77.6814 97.3384V79.8018" stroke="#292925" stroke-width="2.23591" stroke-linecap="round" stroke-linejoin="round"/>
<path d="M91.0969 97.3384V79.8018" stroke="#292925" stroke-width="2.23591" stroke-linecap="round" stroke-linejoin="round"/>
<path d="M104.512 97.3384V79.8018" stroke="#292925" stroke-width="2.23591" stroke-linecap="round" stroke-linejoin="round"/>
<path d="M215.587 73.1235V70.7743H229.195" stroke="#292925" stroke-width="2.23591" stroke-linecap="round" stroke-linejoin="round"/>
<path d="M227.994 85.3359L216.01 85.3265" stroke="#292925" stroke-width="2.23591" stroke-linecap="round" stroke-linejoin="round"/>
<path d="M325.122 95.4531H316.178C315.767 95.4531 315.433 95.1194 315.433 94.7078V86.3231M307.203 105.515L303.508 105.515" stroke="#292925" stroke-width="2.23591" stroke-linecap="round" stroke-linejoin="round"/>
<path d="M315.422 80.733V76.2778C315.422 75.8353 315.78 75.4775 316.222 75.4775H325.513C325.955 75.4775 326.313 75.8353 326.313 76.2778V114.676C326.313 115.118 325.955 115.476 325.517 115.476L296.813 115.631C296.37 115.631 296.007 115.274 296.007 114.831V106.819C296.007 106.376 295.193 105.701 294.751 105.701L256.554 105.514" stroke="#292925" stroke-width="2.23591" stroke-linecap="round" stroke-linejoin="round"/>
<path d="M296.8 98.8071V78.3113" stroke="#292925" stroke-width="2.23591" stroke-linecap="round" stroke-linejoin="round"/>
<path d="M307.21 98.396L303.631 98.3866" stroke="#292925" stroke-width="2.23591" stroke-linecap="round" stroke-linejoin="round"/>
<path d="M307.21 98.396L303.631 98.3866" stroke="#292925" stroke-width="2.23591" stroke-linecap="round" stroke-linejoin="round"/>
<path d="M307.235 91.354H303.508" stroke="#292925" stroke-width="2.23591" stroke-linecap="round" stroke-linejoin="round"/>
<path d="M315.992 75.5071H306.927M306.303 83.0249H297.543" stroke="#292925" stroke-width="2.23591" stroke-linecap="round" stroke-linejoin="round"/>
<path d="M307.421 75.4782H297.627C297.189 75.4782 296.832 75.8313 296.827 76.2738L296.808 78.5383C296.808 78.9762 296.445 79.334 296.008 79.334L228.837 79.2539C228.394 79.2539 228.037 78.8961 228.037 78.4536V71.7024C228.037 71.2599 228.394 70.9021 228.837 70.9021H228.983C229.426 70.9021 229.783 70.5443 229.783 70.1018L229.812 35.0654C229.812 34.6229 229.454 34.2651 229.011 34.2651H178.712" stroke="#292925" stroke-width="2.23591" stroke-linecap="round" stroke-linejoin="round"/>
<path d="M315.375 101.602V115.321" stroke="#292925" stroke-width="2.23591" stroke-linecap="round" stroke-linejoin="round"/>
<path d="M307.235 81.6648V98.4341" stroke="#292925" stroke-width="2.23591" stroke-linecap="round" stroke-linejoin="round"/>
<path d="M305.558 106.343L305.558 115.39" stroke="#292925" stroke-width="2.23591" stroke-linecap="round" stroke-linejoin="round"/>
<path opacity="0.5" d="M205.501 104.363V99.9252H220.407V104.397L205.501 104.363Z" fill="#292925" stroke="#292925" stroke-width="0.745303" stroke-linecap="round" stroke-linejoin="round"/>
<path opacity="0.5" d="M303.027 92.0991H297.546V87.1181H303.069L303.027 92.0991Z" fill="#292925" stroke="#292925" stroke-width="0.745303" stroke-linecap="round" stroke-linejoin="round"/>
<path opacity="0.5" d="M48.8785 92.0991H43.3975V87.1181H48.9209L48.8785 92.0991Z" fill="#292925" stroke="#292925" stroke-width="0.745303" stroke-linecap="round" stroke-linejoin="round"/>
<path d="M154.82 108.869H192.644" stroke="#292925" stroke-width="0.372651"/>
<path d="M154.82 96.9438H192.644" stroke="#292925" stroke-width="0.372651"/>
<path d="M125.002 88.8114C124.918 88.8114 124.851 88.8347 124.802 88.8811C124.755 88.9303 124.732 89 124.732 89.0902V91.4554C124.732 91.5456 124.755 91.6139 124.802 91.6604C124.851 91.7096 124.92 91.7342 125.011 91.7342H126.441C126.512 91.7342 126.566 91.7164 126.601 91.6809C126.637 91.6453 126.654 91.5948 126.654 91.5292C126.654 91.4609 126.637 91.4076 126.601 91.3693C126.566 91.3338 126.512 91.316 126.441 91.316H125.257V90.5003H126.355C126.423 90.5003 126.475 90.4825 126.511 90.447C126.549 90.4115 126.568 90.3609 126.568 90.2953C126.568 90.227 126.549 90.1737 126.511 90.1355C126.475 90.0999 126.423 90.0822 126.355 90.0822H125.257V89.0902C125.257 88.9044 125.172 88.8114 125.002 88.8114Z" fill="#292925"/>
<path d="M220.774 88.4389C220.689 88.4389 220.622 88.4621 220.573 88.5086C220.526 88.5578 220.503 88.6274 220.503 88.7176V91.0828C220.503 91.173 220.526 91.2413 220.573 91.2878C220.622 91.337 220.692 91.3616 220.782 91.3616H222.213C222.284 91.3616 222.337 91.3438 222.372 91.3083C222.408 91.2728 222.426 91.2222 222.426 91.1566C222.426 91.0883 222.408 91.035 222.372 90.9968C222.337 90.9612 222.284 90.9435 222.213 90.9435H221.028V90.1277H222.126C222.195 90.1277 222.247 90.11 222.282 90.0745C222.32 90.0389 222.34 89.9884 222.34 89.9228C222.34 89.8545 222.32 89.8012 222.282 89.7629C222.247 89.7274 222.195 89.7096 222.126 89.7096H221.028V88.7176C221.028 88.5318 220.943 88.4389 220.774 88.4389Z" fill="#292925"/>
<path d="M252.455 98.0615L258.79 98.0615" stroke="#292925" stroke-width="2.23591" stroke-linecap="round" stroke-linejoin="round"/>
<path d="M265.125 98.0615L271.46 98.0615" stroke="#292925" stroke-width="2.23591" stroke-linecap="round" stroke-linejoin="round"/>
<path d="M278.54 98.0615L284.876 98.0615" stroke="#292925" stroke-width="2.23591" stroke-linecap="round" stroke-linejoin="round"/>
<path d="M237.922 98.0615L244.257 98.0615" stroke="#292925" stroke-width="2.23591" stroke-linecap="round" stroke-linejoin="round"/>
<path d="M37.8077 106.26L44.1428 106.26" stroke="#292925" stroke-width="2.23591" stroke-linecap="round" stroke-linejoin="round"/>
<path d="M168.236 50.9214L168.236 54.2752" stroke="#292925" stroke-width="2.23591" stroke-linecap="round" stroke-linejoin="round"/>
</g>
</g>
<defs>
<clipPath id="clip0_959_5365">
<rect width="339" height="176" rx="20" fill="white"/>
</clipPath>
<clipPath id="clip1_959_5365">
<rect width="308.928" height="99.1253" fill="white" transform="matrix(1 0 0 -1 18.8025 131.973)"/>
</clipPath>
</defs>
</svg>
