<svg preserveAspectRatio="none" width="100%" height="100%" overflow="visible" style="display: block;" viewBox="0 0 47.9441 44.4887" fill="none" xmlns="http://www.w3.org/2000/svg">
<g id="figur">
<path id="Vector" d="M34.9865 3.95382C36.9145 3.7268 40.0762 3.95848 39.7287 6.63051C39.2568 10.2587 35.2861 14.1285 32.9515 16.8346C34.8456 17.1081 37.3385 16.6466 38.3089 18.6398C38.3308 20.5183 36.2812 22.5093 35.0415 24.0207C37.4981 24.3656 41.7629 23.7777 43.7407 24.7331C49.7673 27.6436 40.7508 32.6818 38.6597 33.7361C31.6571 37.2664 24.7418 41.0422 17.5143 43.8866C16.7561 44.137 15.9778 44.3195 15.1881 44.4316C14.497 44.5314 13.1923 44.5253 12.6118 44.209C5.9229 40.5643 15.5459 33.1438 18.2734 30.2195C16.3037 30.1541 14.0338 30.5037 13.062 28.4959C13.1493 26.6116 15.4473 24.5874 16.732 22.7369C14.5119 22.5651 12.3642 22.5467 10.3432 21.6023C8.79042 20.877 8.06819 18.85 9.16725 17.6481C14.1031 12.2513 28.4748 5.68368 34.9865 3.95382Z" fill="var(--fill-0, #FF88C8)"/>
<g id="Augen">
<circle id="Auge links" cx="12.5259" cy="12.5259" r="12.5259" fill="var(--fill-0, white)"/>
<circle id="Auge rechts" cx="35.4182" cy="12.5259" r="12.5259" fill="var(--fill-0, white)"/>
<circle id="Pupille links" cx="7.99069" cy="18.7889" r="4.96719" fill="var(--fill-0, #292925)"/>
<circle id="Pupille rechts" cx="30.8829" cy="18.7889" r="4.96719" fill="var(--fill-0, #292925)"/>
</g>
</g>
</svg>
