<svg preserveAspectRatio="none" width="100%" height="100%" overflow="visible" style="display: block;" viewBox="0 0 503.52 474" fill="none" xmlns="http://www.w3.org/2000/svg">
<g id="Screenshot 2026-06-24 at 18.11.37 1 [Vectorized]" clip-path="url(#clip0_0_416)">
<path id="Vector" d="M186.543 133.907C194.816 97.4674 228.901 7.55931 271.755 73.532C281.043 87.83 290.869 114.847 294.488 131.714L294.894 131.385C298.94 128.064 305.722 120.569 309.387 117.082C358.848 70.0235 411.719 57.7138 399.79 148.489C397.955 162.443 394.511 176.875 391.071 190.983C396.555 189.039 402.361 187.937 407.791 186.499C444.591 176.749 518.297 170.38 487.658 234.307C477.286 255.952 459.733 275.848 443.328 292.962C466.949 297.456 516.236 315.688 529.148 336.076C555.402 377.539 467.707 403.922 443.128 409.734C462.915 430.786 489.928 460.013 494.773 490H-15.1655C-13.372 465.794 5.80219 440.572 21.0385 422.984C24.519 418.965 30.6049 412.056 34.3784 408.706L34.7286 408.401C13.4471 405.137 -33.8327 385.158 -46.2266 367.388C-74.3652 327.043 8.11912 299.767 34.2605 293.814C30.0256 290.122 26.9458 285.903 23.1058 281.725C-0.935405 255.569 -47.5685 189.261 19.7291 183.98C42.5207 182.192 66.9786 188.252 89.2903 194.452C81.3678 169.569 71.3204 116.104 83.5651 94.0887C106.458 52.9267 170.641 116.886 186.543 133.907Z" fill="var(--fill-0, #292925)"/>
<path id="Vector_2" d="M276.494 298.624C273.089 288.309 272.98 276.956 278.816 267.656C285.076 257.679 293.51 256.94 302.206 263.283C308.303 260.361 316.485 260.506 322.506 263.232C349.798 275.592 355.91 317.611 345.754 344.464C341.407 355.955 334.299 366.328 323.772 371.264C316.796 374.583 308.877 374.731 301.799 371.675C279.998 362.458 271.55 330.646 274.676 307.82C274.972 305.657 275.513 300.395 276.494 298.624Z" fill="var(--fill-0, #FEFEFE)"/>
<path id="Vector_3" d="M276.494 298.624C273.089 288.309 272.98 276.956 278.816 267.656C285.076 257.679 293.51 256.94 302.206 263.283C325.548 288.177 294.508 334.286 276.494 298.624Z" fill="var(--fill-0, #FF88C8)"/>
<path id="Vector_4" d="M170.473 289.119C170.417 282.035 170.743 276.171 173.94 269.818C179.13 259.505 187.745 256.505 197.214 262.098C200.571 260.273 208.341 261.317 211.664 262.604C249.822 277.389 250.945 351.131 216.018 370.558C209.33 374.278 201.062 374.931 194.071 372.246C166.904 361.249 159.868 320.753 168.472 294.019C168.986 292.421 169.566 290.446 170.473 289.119Z" fill="var(--fill-0, #FEFEFE)"/>
<path id="Vector_5" d="M170.473 289.119C170.417 282.035 170.743 276.171 173.94 269.818C179.13 259.505 187.745 256.505 197.214 262.098C203.237 267.558 205.898 274.083 206.743 282.326C207.956 294.156 201.687 310.375 189.358 311.39C178.011 312.323 171.949 299.312 170.473 289.119Z" fill="var(--fill-0, #FF88C8)"/>
</g>
<defs>
<clipPath id="clip0_0_416">
<rect width="503.52" height="474" fill="white"/>
</clipPath>
</defs>
</svg>
