<svg preserveAspectRatio="none" width="100%" height="100%" overflow="visible" style="display: block;" viewBox="0 0 178 66" fill="none" xmlns="http://www.w3.org/2000/svg">
<g id="figur">
<path id="Vector" d="M98.7882 8C122.295 8.03087 127.77 15.6653 130.794 24.7023C131.529 24.2524 132.299 23.8114 133.105 23.3835C137.141 21.2401 146.664 17.7029 152.878 18.0116C183.483 19.8993 176.14 38.0085 177.658 47.5482C180.939 68.1493 160.387 65.5957 124.483 65.6706L68.6706 65.75C46.5866 65.7676 4.14508 68.5462 0.366782 55.1385C-2.01348 46.6882 7.29772 42.0837 25.2041 40.8267C22.1272 31.4237 12.3157 18.2454 35.89 11.6959C41.5502 10.0994 48.3985 9.6142 54.8622 10.3551C65.1507 11.5768 69.8325 14.5671 74.9214 18.4306C80.7166 12.8559 85.0449 9.41574 98.7882 8Z" fill="#292925"/>
<g id="Augen 19">
<ellipse id="Auge rechts" cx="121" cy="45" rx="28" ry="21" fill="white"/>
<ellipse id="Auge links" cx="69.5" cy="45" rx="28.5" ry="21" fill="white"/>
<circle id="Pupille rechts" cx="121.048" cy="56.8333" r="8.78571" fill="#292925"/>
<circle id="Pupille links" cx="69.3095" cy="56.8333" r="8.78571" fill="#292925"/>
</g>
</g>
</svg>
