<svg preserveAspectRatio="none" width="100%" height="100%" overflow="visible" style="display: block;" viewBox="0 0 79.3245 52.543" fill="none" xmlns="http://www.w3.org/2000/svg">
<g id="Group 39810">
<path id="Ellipse 164" d="M62.0384 5.35277C66.2434 6.00662 69.7115 8.90383 71.8608 13.2611C74.0096 17.6178 74.7891 23.3582 73.6118 29.439C72.4343 35.52 69.5421 40.6901 65.8808 44.1435C62.2191 47.5972 57.8646 49.2781 53.6595 48.6242C49.4545 47.9704 45.9864 45.0731 43.8371 40.7159C41.6882 36.359 40.9088 30.618 42.0863 24.537C43.2639 18.4562 46.1559 13.2868 49.8171 9.83347C53.4788 6.37978 57.8333 4.69892 62.0384 5.35277Z" fill="var(--fill-0, #FF88C8)"/>
<path id="Ellipse 165" d="M21.7676 1.29297C32.9077 1.29297 42.2422 11.7802 42.2422 25.1182C42.242 38.4559 32.9076 48.9424 21.7676 48.9424C10.6276 48.9422 1.29312 38.4558 1.29297 25.1182C1.29297 11.7803 10.6275 1.29313 21.7676 1.29297Z" fill="var(--fill-0, #FF88C8)"/>
<ellipse id="Ellipse 166" cx="57.3455" cy="14.3457" rx="6.85836" ry="9.08517" fill="var(--fill-0, #292925)"/>
<ellipse id="Ellipse 167" cx="22.737" cy="11.4903" rx="8.64749" ry="11.4901" fill="var(--fill-0, #292925)"/>
</g>
</svg>
