<svg preserveAspectRatio="none" width="100%" height="100%" overflow="visible" style="display: block;" viewBox="0 0 320.374 272.462" fill="none" xmlns="http://www.w3.org/2000/svg">
<path id="Vector" d="M125.826 0.123021C182.284 -3.21991 177.331 62.4353 206.172 91.2227C212.247 97.2782 231.835 74.699 249.905 72.5214C258.16 71.528 266.453 74.0688 272.781 79.5703C295.935 99.8953 314.925 207.927 319.809 240C327.912 293.181 246.742 265.036 212.813 264.902C174.11 264.902 43.4818 271.55 15.7506 261.177C9.79785 258.961 5.02437 255.981 2.55517 249.792C-5.2593 230.231 6.62181 203.813 14.4569 186.047C33.4775 142.933 74.0254 45.7779 103.512 14.2589C110.235 7.07636 116.786 3.61877 125.826 0.123021Z" fill="#292925"/>
</svg>
