<svg width="131" height="46" viewBox="0 0 131 46" fill="none" xmlns="http://www.w3.org/2000/svg">
<path d="M6.91485 25.958C5.77337 32.2569 3.32933 37.5456 0 38.5L11.1954 46H119.636C128.198 42.8983 133 40 130 38C121.927 32.618 120.112 27.6281 119.636 23.0948C122.49 -16.2735 76.1174 5.91591 70.41 10.9265C65.844 14.9349 59.4707 12.5966 56.8548 10.9265C11.1954 -17.705 8.34171 18.0843 6.91485 25.958Z" fill="#FF88C8"/>
<ellipse cx="92.7693" cy="25.1469" rx="24.2307" ry="18.1469" fill="white"/>
<ellipse cx="36.2307" cy="25.1469" rx="24.2307" ry="18.1469" fill="white"/>
<g clip-path="url(#clip0_2120_181)">
<path d="M97.6797 28.6378C96.269 33.2715 90.0788 36.979 84.998 38.9997C82.8581 38.1501 80.8471 37.1432 78.981 35.9631C77.8536 35.2498 76.8187 34.4902 75.8542 33.64C73.899 31.9043 72.3877 29.858 72.0561 27.4822C71.8418 25.9469 72.2357 24.3909 73.298 23.1129C73.9485 22.3304 74.8413 21.7544 75.9084 21.4025C76.4855 21.2121 77.0526 21.1101 77.6728 21.0486C79.3565 20.8818 81.0423 21.1557 82.4878 21.8719C83.4731 22.3602 84.3339 22.9918 84.9964 23.7783C86.1246 22.4764 87.7968 21.4989 89.6936 21.1541C90.9827 20.9197 92.2897 20.9531 93.5512 21.2516C96.2047 21.8794 97.6821 23.846 97.9579 26.0068C98.0712 26.8968 97.9443 27.7675 97.6793 28.6381L97.6797 28.6378Z" fill="#292925"/>
</g>
<g clip-path="url(#clip1_2120_181)">
<path d="M56.6674 28.6378C55.2024 33.2715 48.7741 36.979 43.4979 38.9997C41.2757 38.1501 39.1874 37.1432 37.2495 35.9631C36.0787 35.2498 35.0041 34.4902 34.0024 33.64C31.9721 31.9043 30.4026 29.858 30.0582 27.4822C29.8357 25.9469 30.2447 24.3909 31.348 23.1129C32.0235 22.3304 32.9506 21.7544 34.0588 21.4025C34.658 21.2121 35.247 21.1101 35.891 21.0486C37.6395 20.8818 39.3901 21.1557 40.8911 21.8719C41.9144 22.3602 42.8083 22.9918 43.4963 23.7783C44.6679 22.4764 46.4044 21.4989 48.3742 21.1541C49.7128 20.9197 51.0701 20.9531 52.3801 21.2516C55.1357 21.8794 56.6699 23.846 56.9563 26.0068C57.074 26.8968 56.9422 27.7675 56.667 28.6381L56.6674 28.6378Z" fill="#292925"/>
</g>
<defs>
<clipPath id="clip0_2120_181">
<rect width="26" height="18" fill="white" transform="translate(72 21)"/>
</clipPath>
<clipPath id="clip1_2120_181">
<rect width="27" height="18" fill="white" transform="translate(30 21)"/>
</clipPath>
</defs>
</svg>
